{
.appVersion = "1230";
copyright = "Copyright (c) 2019, Lincoln Public Schools Computing Services (www.lps.org),\012with Reserved Font Name \"First Hand.\"";
date = "2019-09-10 20:14:48 +0000";
designer = "Lincoln Public Schools";
designerURL = www.lps.org;
familyName = "First Hand";
fontMaster = (
{
ascender = 800;
capHeight = 700;
descender = -200;
id = "2F22A4FE-F550-4776-9C81-47C8675FAB27";
userData = {
GSCornerRadius = 40;
};
xHeight = 500;
}
);
glyphs = (
{
glyphname = A;
lastChange = "2019-09-19 20:18:44 +0000";
layers = (
{
layerId = "2F22A4FE-F550-4776-9C81-47C8675FAB27";
paths = (
{
closed = 1;
nodes = (
"367 667 LINE",
"353 700 OFFCURVE",
"305 700 OFFCURVE",
"290 667 CURVE",
"19 49 LINE",
"7 21 OFFCURVE",
"19 0 OFFCURVE",
"48 0 CURVE",
"70 0 OFFCURVE",
"85 10 OFFCURVE",
"94 32 CURVE",
"162 200 LINE",
"490 200 LINE",
"558 32 LINE",
"567 10 OFFCURVE",
"582 0 OFFCURVE",
"604 0 CURVE",
"613 0 LINE",
"637 0 OFFCURVE",
"645 21 OFFCURVE",
"633 49 CURVE"
);
},
{
closed = 1;
nodes = (
"191 272 LINE",
"326 575 LINE",
"461 272 LINE"
);
}
);
width = 600;
}
);
unicode = 0041;
},
{
glyphname = Acircumflex;
lastChange = "2019-09-19 19:07:54 +0000";
layers = (
{
layerId = "2F22A4FE-F550-4776-9C81-47C8675FAB27";
paths = (
{
closed = 1;
nodes = (
"202 681 OFFCURVE",
"215 693 OFFCURVE",
"222 702 CURVE SMOOTH",
"322 815 LINE",
"326 818 OFFCURVE",
"330 818 OFFCURVE",
"334 815 CURVE",
"428 702 LINE SMOOTH",
"434 694 OFFCURVE",
"448 677 OFFCURVE",
"466 692 CURVE SMOOTH",
"481 705 OFFCURVE",
"474 724 OFFCURVE",
"468 732 CURVE SMOOTH",
"391 827 LINE SMOOTH",
"384 835 OFFCURVE",
"356 867 OFFCURVE",
"330 867 CURVE SMOOTH",
"305 867 OFFCURVE",
"276 835 OFFCURVE",
"269 827 CURVE SMOOTH",
"185 731 LINE SMOOTH",
"178 723 OFFCURVE",
"171 704 OFFCURVE",
"187 692 CURVE SMOOTH"
);
},
{
closed = 1;
nodes = (
"367 667 LINE",
"353 700 OFFCURVE",
"305 700 OFFCURVE",
"290 667 CURVE",
"19 49 LINE",
"7 21 OFFCURVE",
"19 0 OFFCURVE",
"48 0 CURVE",
"70 0 OFFCURVE",
"85 10 OFFCURVE",
"94 32 CURVE",
"162 200 LINE",
"490 200 LINE",
"558 32 LINE",
"567 10 OFFCURVE",
"582 0 OFFCURVE",
"604 0 CURVE",
"613 0 LINE",
"637 0 OFFCURVE",
"645 21 OFFCURVE",
"633 49 CURVE"
);
},
{
closed = 1;
nodes = (
"191 272 LINE",
"326 575 LINE",
"461 272 LINE"
);
}
);
width = 600;
}
);
unicode = 00C2;
},
{
glyphname = B;
lastChange = "2019-09-14 20:18:19 +0000";
layers = (
{
layerId = "2F22A4FE-F550-4776-9C81-47C8675FAB27";
paths = (
{
closed = 1;
nodes = (
"561 558 OFFCURVE",
"515 604 QCURVE SMOOTH",
"457 662 OFFCURVE",
"352 662 QCURVE SMOOTH",
"95 662 LINE SMOOTH",
"69 662 OFFCURVE",
"55 648 OFFCURVE",
"55 622 CURVE SMOOTH",
"55 40 LINE SMOOTH",
"55 14 OFFCURVE",
"69 0 OFFCURVE",
"95 0 CURVE SMOOTH",
"369 0 LINE SMOOTH",
"426 0 OFFCURVE",
"468 14 QCURVE SMOOTH",
"595 56 OFFCURVE",
"595 174 QCURVE SMOOTH",
"595 211 OFFCURVE",
"584 239 QCURVE SMOOTH",
"555 312 OFFCURVE",
"472 338 QCURVE",
"561 378 OFFCURVE",
"561 487 QCURVE SMOOTH"
);
},
{
closed = 1;
nodes = (
"130 591 LINE",
"360 591 LINE SMOOTH",
"422 591 OFFCURVE",
"457 556 QCURVE SMOOTH",
"472 541 OFFCURVE",
"486 502 OFFCURVE",
"486 451 OFFCURVE",
"475 429 QCURVE SMOOTH",
"444 366 OFFCURVE",
"352 366 QCURVE SMOOTH",
"130 366 LINE"
);
},
{
closed = 1;
nodes = (
"130 71 LINE",
"130 298 LINE",
"369 298 LINE SMOOTH",
"444 298 OFFCURVE",
"484 262 QCURVE SMOOTH",
"520 230 OFFCURVE",
"520 180 QCURVE SMOOTH",
"520 128 OFFCURVE",
"446 71 OFFCURVE",
"377 71 QCURVE SMOOTH"
);
}
);
width = 600;
}
);
unicode = 0042;
},
{
glyphname = C;
lastChange = "2019-08-24 02:22:48 +0000";
layers = (
{
layerId = "2F22A4FE-F550-4776-9C81-47C8675FAB27";
paths = (
{
closed = 1;
nodes = (
"459 -10 OFFCURVE",
"562 21 OFFCURVE",
"614 49 QCURVE SMOOTH",
"635 60 OFFCURVE",
"635 85 QCURVE SMOOTH",
"635 100 OFFCURVE",
"614 121 OFFCURVE",
"597 121 QCURVE SMOOTH",
"587 121 OFFCURVE",
"579 117 QCURVE SMOOTH",
"536 95 OFFCURVE",
"455 72 OFFCURVE",
"402 72 QCURVE SMOOTH",
"318 72 OFFCURVE",
"200 140 OFFCURVE",
"142 255 OFFCURVE",
"142 329 QCURVE SMOOTH",
"142 402 OFFCURVE",
"200 518 OFFCURVE",
"318 584 OFFCURVE",
"402 584 QCURVE SMOOTH",
"455 584 OFFCURVE",
"536 561 OFFCURVE",
"579 539 QCURVE SMOOTH",
"587 536 OFFCURVE",
"597 536 QCURVE SMOOTH",
"614 536 OFFCURVE",
"635 557 OFFCURVE",
"635 572 QCURVE SMOOTH",
"635 596 OFFCURVE",
"614 608 QCURVE SMOOTH",
"562 635 OFFCURVE",
"459 666 OFFCURVE",
"393 666 QCURVE SMOOTH",
"296 666 OFFCURVE",
"142 584 OFFCURVE",
"53 431 OFFCURVE",
"53 329 QCURVE SMOOTH",
"53 226 OFFCURVE",
"142 72 OFFCURVE",
"296 -10 OFFCURVE",
"393 -10 QCURVE SMOOTH"
);
}
);
width = 600;
}
);
unicode = 0043;
},
{
glyphname = D;
lastChange = "2019-08-24 02:05:56 +0000";
layers = (
{
layerId = "2F22A4FE-F550-4776-9C81-47C8675FAB27";
paths = (
{
closed = 1;
nodes = (
"121 662 LINE SMOOTH",
"95 662 OFFCURVE",
"81 648 OFFCURVE",
"81 622 CURVE SMOOTH",
"81 40 LINE SMOOTH",
"81 14 OFFCURVE",
"95 0 OFFCURVE",
"121 0 CURVE SMOOTH",
"360 0 LINE SMOOTH",
"419 0 OFFCURVE",
"529 45 OFFCURVE",
"571 88 QCURVE SMOOTH",
"664 183 OFFCURVE",
"664 331 QCURVE SMOOTH",
"664 479 OFFCURVE",
"571 574 QCURVE SMOOTH",
"529 617 OFFCURVE",
"419 662 OFFCURVE",
"360 662 QCURVE SMOOTH"
);
},
{
closed = 1;
nodes = (
"156 71 LINE",
"156 591 LINE",
"357 591 LINE SMOOTH",
"461 591 OFFCURVE",
"526 514 QCURVE SMOOTH",
"589 440 OFFCURVE",
"589 331 QCURVE SMOOTH",
"589 222 OFFCURVE",
"526 148 QCURVE SMOOTH",
"461 71 OFFCURVE",
"357 71 QCURVE SMOOTH"
);
}
);
width = 600;
}
);
unicode = 0044;
},
{
glyphname = E;
lastChange = "2019-08-24 02:08:15 +0000";
layers = (
{
layerId = "2F22A4FE-F550-4776-9C81-47C8675FAB27";
paths = (
{
closed = 1;
nodes = (
"528 590 LINE SMOOTH",
"554 590 OFFCURVE",
"568 603 OFFCURVE",
"568 626 CURVE SMOOTH",
"568 649 OFFCURVE",
"554 662 OFFCURVE",
"528 662 CURVE SMOOTH",
"121 662 LINE SMOOTH",
"95 662 OFFCURVE",
"81 648 OFFCURVE",
"81 622 CURVE SMOOTH",
"81 40 LINE SMOOTH",
"81 14 OFFCURVE",
"95 0 OFFCURVE",
"121 0 CURVE SMOOTH",
"528 0 LINE SMOOTH",
"554 0 OFFCURVE",
"568 13 OFFCURVE",
"568 36 CURVE SMOOTH",
"568 59 OFFCURVE",
"554 72 OFFCURVE",
"528 72 CURVE SMOOTH",
"156 72 LINE",
"156 295 LINE",
"436 295 LINE SMOOTH",
"462 295 OFFCURVE",
"481 308 OFFCURVE",
"481 332 CURVE SMOOTH",
"481 355 OFFCURVE",
"462 368 OFFCURVE",
"436 368 CURVE SMOOTH",
"156 368 LINE",
"156 590 LINE"
);
}
);
width = 600;
}
);
unicode = 0045;
},
{
glyphname = F;
lastChange = "2019-08-24 02:07:50 +0000";
layers = (
{
layerId = "2F22A4FE-F550-4776-9C81-47C8675FAB27";
paths = (
{
closed = 1;
nodes = (
"519 590 LINE SMOOTH",
"545 590 OFFCURVE",
"559 603 OFFCURVE",
"559 626 CURVE SMOOTH",
"559 649 OFFCURVE",
"545 662 OFFCURVE",
"519 662 CURVE SMOOTH",
"121 662 LINE SMOOTH",
"95 662 OFFCURVE",
"81 648 OFFCURVE",
"81 622 CURVE SMOOTH",
"81 40 LINE SMOOTH",
"81 14 OFFCURVE",
"95 0 OFFCURVE",
"119 0 CURVE SMOOTH",
"143 0 OFFCURVE",
"156 14 OFFCURVE",
"156 40 CURVE SMOOTH",
"156 287 LINE",
"435 287 LINE SMOOTH",
"461 287 OFFCURVE",
"475 300 OFFCURVE",
"475 324 CURVE SMOOTH",
"475 347 OFFCURVE",
"461 360 OFFCURVE",
"435 360 CURVE SMOOTH",
"156 360 LINE",
"156 590 LINE"
);
}
);
width = 600;
}
);
unicode = 0046;
},
{
glyphname = G;
lastChange = "2019-09-15 01:49:39 +0000";
layers = (
{
layerId = "2F22A4FE-F550-4776-9C81-47C8675FAB27";
paths = (
{
closed = 1;
nodes = (
"275 670 OFFCURVE",
"145 593 OFFCURVE",
"61 448 OFFCURVE",
"61 352 QCURVE SMOOTH",
"61 257 OFFCURVE",
"122 129 OFFCURVE",
"241 37 OFFCURVE",
"327 37 QCURVE SMOOTH",
"404 37 OFFCURVE",
"527 98 OFFCURVE",
"596 189 OFFCURVE",
"614 293 QCURVE",
"618 338 LINE SMOOTH",
"620 362 OFFCURVE",
"602 375 OFFCURVE",
"581 375 CURVE SMOOTH",
"355 375 LINE SMOOTH",
"333 375 OFFCURVE",
"321 359 OFFCURVE",
"321 339 CURVE SMOOTH",
"321 320 OFFCURVE",
"333 309 OFFCURVE",
"355 309 CURVE SMOOTH",
"548 309 LINE",
"542 244 OFFCURVE",
"489 155 OFFCURVE",
"392 106 OFFCURVE",
"338 106 QCURVE SMOOTH",
"274 106 OFFCURVE",
"187 160 OFFCURVE",
"136 274 OFFCURVE",
"136 352 QCURVE SMOOTH",
"136 428 OFFCURVE",
"187 541 OFFCURVE",
"303 604 OFFCURVE",
"369 603 QCURVE SMOOTH",
"429 602 OFFCURVE",
"496 559 OFFCURVE",
"529 500 QCURVE SMOOTH",
"538 484 OFFCURVE",
"554 482 OFFCURVE",
"554 482 CURVE SMOOTH",
"569 482 OFFCURVE",
"584 485 OFFCURVE",
"587 498 CURVE SMOOTH",
"596 539 OFFCURVE",
"470 672 OFFCURVE",
"360 671 QCURVE SMOOTH"
);
}
);
width = 600;
}
);
unicode = 0047;
},
{
glyphname = H;
lastChange = "2019-09-13 01:01:04 +0000";
layers = (
{
layerId = "2F22A4FE-F550-4776-9C81-47C8675FAB27";
paths = (
{
closed = 1;
nodes = (
"91 -5 OFFCURVE",
"113 21 OFFCURVE",
"113 40 QCURVE SMOOTH",
"113 308 LINE",
"483 308 LINE",
"483 40 LINE SMOOTH",
"483 21 OFFCURVE",
"504 -5 OFFCURVE",
"523 -5 QCURVE SMOOTH",
"542 -5 OFFCURVE",
"569 21 OFFCURVE",
"569 40 QCURVE SMOOTH",
"569 624 LINE SMOOTH",
"569 643 OFFCURVE",
"542 670 OFFCURVE",
"523 670 QCURVE SMOOTH",
"504 670 OFFCURVE",
"483 643 OFFCURVE",
"483 624 QCURVE SMOOTH",
"483 388 LINE",
"113 388 LINE",
"113 624 LINE SMOOTH",
"113 643 OFFCURVE",
"91 670 OFFCURVE",
"72 670 QCURVE SMOOTH",
"53 670 OFFCURVE",
"27 643 OFFCURVE",
"27 624 QCURVE SMOOTH",
"27 40 LINE SMOOTH",
"27 21 OFFCURVE",
"53 -5 OFFCURVE",
"72 -5 QCURVE SMOOTH"
);
}
);
width = 600;
}
);
unicode = 0048;
},
{
glyphname = I;
lastChange = "2019-08-24 03:09:53 +0000";
layers = (
{
layerId = "2F22A4FE-F550-4776-9C81-47C8675FAB27";
paths = (
{
closed = 1;
nodes = (
"55 20 OFFCURVE",
"69 7 OFFCURVE",
"95 7 CURVE SMOOTH",
"575 7 LINE SMOOTH",
"601 7 OFFCURVE",
"615 21 OFFCURVE",
"615 45 CURVE SMOOTH",
"615 69 OFFCURVE",
"601 82 OFFCURVE",
"575 82 CURVE SMOOTH",
"95 82 LINE SMOOTH",
"69 82 OFFCURVE",
"55 69 OFFCURVE",
"55 45 CURVE SMOOTH"
);
},
{
closed = 1;
nodes = (
"55 601 OFFCURVE",
"69 588 OFFCURVE",
"95 588 CURVE SMOOTH",
"575 588 LINE SMOOTH",
"601 588 OFFCURVE",
"615 602 OFFCURVE",
"615 626 CURVE SMOOTH",
"615 650 OFFCURVE",
"601 663 OFFCURVE",
"575 663 CURVE SMOOTH",
"95 663 LINE SMOOTH",
"69 663 OFFCURVE",
"55 650 OFFCURVE",
"55 626 CURVE SMOOTH"
);
},
{
closed = 1;
nodes = (
"296 82 LINE",
"371 82 LINE",
"371 588 LINE",
"296 588 LINE"
);
}
);
width = 662;
}
);
unicode = 0049;
},
{
glyphname = J;
lastChange = "2019-08-24 03:10:02 +0000";
layers = (
{
layerId = "2F22A4FE-F550-4776-9C81-47C8675FAB27";
paths = (
{
closed = 1;
nodes = (
"317 -8 OFFCURVE",
"374 15 OFFCURVE",
"413 62 CURVE SMOOTH",
"446 103 OFFCURVE",
"462 155 OFFCURVE",
"462 219 CURVE SMOOTH",
"462 593 LINE",
"592 593 LINE SMOOTH",
"618 593 OFFCURVE",
"632 606 OFFCURVE",
"632 630 CURVE SMOOTH",
"632 653 OFFCURVE",
"618 666 OFFCURVE",
"592 666 CURVE SMOOTH",
"237 666 LINE SMOOTH",
"211 666 OFFCURVE",
"197 653 OFFCURVE",
"197 630 CURVE SMOOTH",
"197 607 OFFCURVE",
"211 593 OFFCURVE",
"237 593 CURVE SMOOTH",
"385 593 LINE",
"385 222 LINE SMOOTH",
"385 177 OFFCURVE",
"377 143 OFFCURVE",
"362 118 CURVE",
"339 83 OFFCURVE",
"300 65 OFFCURVE",
"245 65 CURVE SMOOTH",
"200 65 OFFCURVE",
"157 77 OFFCURVE",
"130 102 CURVE",
"105 123 OFFCURVE",
"89 151 OFFCURVE",
"75 177 CURVE",
"70 185 OFFCURVE",
"38 198 OFFCURVE",
"23 163 CURVE",
"20 155 OFFCURVE",
"21 144 OFFCURVE",
"25 133 CURVE SMOOTH",
"38 98 OFFCURVE",
"59 67 OFFCURVE",
"89 38 CURVE SMOOTH",
"122 7 OFFCURVE",
"172 -8 OFFCURVE",
"241 -8 CURVE SMOOTH"
);
}
);
width = 600;
}
);
unicode = 004A;
},
{
glyphname = K;
lastChange = "2019-08-24 03:10:37 +0000";
layers = (
{
layerId = "2F22A4FE-F550-4776-9C81-47C8675FAB27";
paths = (
{
closed = 1;
nodes = (
"585 615 LINE SMOOTH",
"613 637 OFFCURVE",
"598 664 OFFCURVE",
"563 664 CURVE SMOOTH",
"548 664 LINE SMOOTH",
"528 664 OFFCURVE",
"514 655 OFFCURVE",
"499 642 CURVE SMOOTH",
"164 366 LINE",
"164 624 LINE SMOOTH",
"164 650 OFFCURVE",
"150 664 OFFCURVE",
"124 664 CURVE SMOOTH",
"113 664 LINE SMOOTH",
"87 664 OFFCURVE",
"73 650 OFFCURVE",
"73 624 CURVE SMOOTH",
"73 40 LINE SMOOTH",
"73 14 OFFCURVE",
"87 0 OFFCURVE",
"113 0 CURVE SMOOTH",
"124 0 LINE SMOOTH",
"150 0 OFFCURVE",
"164 14 OFFCURVE",
"164 40 CURVE SMOOTH",
"164 317 LINE",
"498 22 LINE SMOOTH",
"513 8 OFFCURVE",
"527 0 OFFCURVE",
"547 0 CURVE SMOOTH",
"574 0 LINE SMOOTH",
"603 0 OFFCURVE",
"612 26 OFFCURVE",
"586 49 CURVE SMOOTH",
"248 344 LINE"
);
}
);
width = 600;
}
);
unicode = 004B;
},
{
glyphname = L;
lastChange = "2019-08-24 03:10:57 +0000";
layers = (
{
layerId = "2F22A4FE-F550-4776-9C81-47C8675FAB27";
paths = (
{
closed = 1;
nodes = (
"515 0 LINE SMOOTH",
"534 0 OFFCURVE",
"561 26 OFFCURVE",
"561 45 QCURVE SMOOTH",
"561 64 OFFCURVE",
"534 91 OFFCURVE",
"515 91 QCURVE SMOOTH",
"94 91 LINE",
"94 617 LINE SMOOTH",
"94 636 OFFCURVE",
"67 663 OFFCURVE",
"48 663 QCURVE SMOOTH",
"29 663 OFFCURVE",
"3 636 OFFCURVE",
"3 617 QCURVE SMOOTH",
"3 63 LINE SMOOTH",
"3 37 OFFCURVE",
"40 0 OFFCURVE",
"66 0 QCURVE SMOOTH"
);
}
);
width = 600;
}
);
unicode = 004C;
},
{
glyphname = M;
lastChange = "2019-08-24 03:19:36 +0000";
layers = (
{
layerId = "2F22A4FE-F550-4776-9C81-47C8675FAB27";
paths = (
{
closed = 1;
nodes = (
"687 662 OFFCURVE",
"663 646 OFFCURVE",
"648 610 CURVE",
"428 106 LINE",
"205 610 LINE",
"190 645 OFFCURVE",
"165 662 OFFCURVE",
"128 662 CURVE",
"93 662 OFFCURVE",
"73 638 OFFCURVE",
"73 595 CURVE",
"73 38 LINE",
"73 13 OFFCURVE",
"87 0 OFFCURVE",
"113 0 CURVE",
"124 0 LINE",
"150 0 OFFCURVE",
"164 13 OFFCURVE",
"164 38 CURVE",
"164 526 LINE",
"364 53 LINE",
"379 16 OFFCURVE",
"399 0 OFFCURVE",
"427 0 CURVE",
"454 0 OFFCURVE",
"474 16 OFFCURVE",
"489 53 CURVE",
"688 528 LINE",
"688 38 LINE",
"688 13 OFFCURVE",
"702 0 OFFCURVE",
"728 0 CURVE",
"739 0 LINE",
"765 0 OFFCURVE",
"779 13 OFFCURVE",
"779 38 CURVE",
"779 595 LINE",
"779 638 OFFCURVE",
"760 662 OFFCURVE",
"725 662 CURVE"
);
}
);
width = 600;
}
);
unicode = 004D;
},
{
glyphname = N;
lastChange = "2019-09-15 01:46:41 +0000";
layers = (
{
layerId = "2F22A4FE-F550-4776-9C81-47C8675FAB27";
paths = (
{
closed = 1;
nodes = (
"561 624 LINE",
"561 649 OFFCURVE",
"547 662 OFFCURVE",
"531 662 CURVE",
"520 662 LINE",
"494 662 OFFCURVE",
"480 649 OFFCURVE",
"480 624 CURVE",
"480 138 LINE",
"166 619 LINE",
"145 648 OFFCURVE",
"122 662 OFFCURVE",
"91 662 CURVE",
"72 662 OFFCURVE",
"55 639 OFFCURVE",
"55 596 CURVE",
"55 38 LINE",
"55 13 OFFCURVE",
"69 0 OFFCURVE",
"85 0 CURVE",
"96 0 LINE",
"122 0 OFFCURVE",
"136 13 OFFCURVE",
"136 38 CURVE",
"136 523 LINE",
"450 42 LINE",
"471 13 OFFCURVE",
"494 0 OFFCURVE",
"526 0 CURVE",
"545 0 OFFCURVE",
"561 23 OFFCURVE",
"561 66 CURVE"
);
}
);
width = 600;
}
);
unicode = 004E;
},
{
glyphname = O;
lastChange = "2019-08-24 03:26:19 +0000";
layers = (
{
layerId = "2F22A4FE-F550-4776-9C81-47C8675FAB27";
paths = (
{
closed = 1;
nodes = (
"228 662 OFFCURVE",
"135 565 QCURVE SMOOTH",
"44 471 OFFCURVE",
"44 188 OFFCURVE",
"135 94 QCURVE SMOOTH",
"228 -3 OFFCURVE",
"374 -3 QCURVE SMOOTH",
"519 -3 OFFCURVE",
"612 94 QCURVE SMOOTH",
"703 188 OFFCURVE",
"703 471 OFFCURVE",
"612 565 QCURVE SMOOTH",
"519 662 OFFCURVE",
"374 662 QCURVE SMOOTH"
);
},
{
closed = 1;
nodes = (
"261 76 OFFCURVE",
"191 149 QCURVE SMOOTH",
"125 220 OFFCURVE",
"118 330 QCURVE SMOOTH",
"125 440 OFFCURVE",
"191 510 QCURVE SMOOTH",
"261 584 OFFCURVE",
"374 584 QCURVE SMOOTH",
"487 584 OFFCURVE",
"556 510 QCURVE SMOOTH",
"623 440 OFFCURVE",
"623 330 QCURVE SMOOTH",
"623 220 OFFCURVE",
"556 149 QCURVE SMOOTH",
"487 76 OFFCURVE",
"374 76 QCURVE SMOOTH"
);
}
);
width = 600;
}
);
unicode = 004F;
},
{
glyphname = P;
lastChange = "2019-08-24 03:28:37 +0000";
layers = (
{
layerId = "2F22A4FE-F550-4776-9C81-47C8675FAB27";
paths = (
{
closed = 1;
nodes = (
"156 236 LINE",
"379 236 LINE SMOOTH",
"484 236 OFFCURVE",
"607 351 OFFCURVE",
"607 449 QCURVE SMOOTH",
"607 546 OFFCURVE",
"546 604 QCURVE SMOOTH",
"484 662 OFFCURVE",
"379 662 QCURVE SMOOTH",
"121 662 LINE SMOOTH",
"95 662 OFFCURVE",
"81 648 OFFCURVE",
"81 622 CURVE SMOOTH",
"81 40 LINE SMOOTH",
"81 14 OFFCURVE",
"95 0 OFFCURVE",
"119 0 CURVE SMOOTH",
"143 0 OFFCURVE",
"156 14 OFFCURVE",
"156 40 CURVE SMOOTH"
);
},
{
closed = 1;
nodes = (
"374 591 LINE SMOOTH",
"452 591 OFFCURVE",
"532 515 OFFCURVE",
"532 382 OFFCURVE",
"452 306 OFFCURVE",
"374 306 QCURVE SMOOTH",
"156 306 LINE",
"156 591 LINE"
);
}
);
width = 600;
}
);
unicode = 0050;
},
{
glyphname = Q;
lastChange = "2019-08-24 03:33:36 +0000";
layers = (
{
layerId = "2F22A4FE-F550-4776-9C81-47C8675FAB27";
paths = (
{
closed = 1;
nodes = (
"681 180 OFFCURVE",
"703 249 OFFCURVE",
"703 330 CURVE SMOOTH",
"703 424 OFFCURVE",
"673 502 OFFCURVE",
"612 565 CURVE SMOOTH",
"550 630 OFFCURVE",
"471 662 OFFCURVE",
"374 662 CURVE SMOOTH",
"277 662 OFFCURVE",
"197 630 OFFCURVE",
"135 565 CURVE SMOOTH",
"74 502 OFFCURVE",
"44 424 OFFCURVE",
"44 330 CURVE SMOOTH",
"44 235 OFFCURVE",
"74 157 OFFCURVE",
"135 94 CURVE SMOOTH",
"197 29 OFFCURVE",
"277 -3 OFFCURVE",
"374 -3 CURVE SMOOTH",
"456 -3 OFFCURVE",
"526 20 OFFCURVE",
"583 67 CURVE",
"646 6 LINE SMOOTH",
"665 -12 OFFCURVE",
"685 -12 OFFCURVE",
"702 7 CURVE SMOOTH",
"719 26 OFFCURVE",
"717 44 OFFCURVE",
"699 62 CURVE SMOOTH",
"637 123 LINE"
);
},
{
closed = 1;
nodes = (
"299 76 OFFCURVE",
"238 100 OFFCURVE",
"191 149 CURVE SMOOTH",
"147 196 OFFCURVE",
"123 257 OFFCURVE",
"118 330 CURVE",
"123 403 OFFCURVE",
"147 463 OFFCURVE",
"191 510 CURVE SMOOTH",
"238 559 OFFCURVE",
"299 584 OFFCURVE",
"374 584 CURVE SMOOTH",
"449 584 OFFCURVE",
"510 559 OFFCURVE",
"556 510 CURVE SMOOTH",
"601 463 OFFCURVE",
"623 403 OFFCURVE",
"623 330 CURVE SMOOTH",
"623 271 OFFCURVE",
"608 220 OFFCURVE",
"579 178 CURVE",
"519 235 LINE SMOOTH",
"500 253 OFFCURVE",
"480 253 OFFCURVE",
"463 235 CURVE SMOOTH",
"445 216 OFFCURVE",
"445 196 OFFCURVE",
"475 169 CURVE SMOOTH",
"526 122 LINE",
"484 91 OFFCURVE",
"434 76 OFFCURVE",
"374 76 CURVE SMOOTH"
);
}
);
width = 600;
}
);
unicode = 0051;
},
{
glyphname = R;
lastChange = "2019-08-24 03:38:47 +0000";
layers = (
{
layerId = "2F22A4FE-F550-4776-9C81-47C8675FAB27";
paths = (
{
closed = 1;
nodes = (
"156 591 LINE",
"389 591 LINE SMOOTH",
"460 591 OFFCURVE",
"546 518 OFFCURVE",
"546 455 QCURVE SMOOTH",
"546 416 OFFCURVE",
"531 391 QCURVE SMOOTH",
"491 325 OFFCURVE",
"385 325 QCURVE SMOOTH",
"156 325 LINE"
);
},
{
closed = 1;
nodes = (
"156 254 LINE",
"156 254 LINE",
"529 26 LINE SMOOTH",
"547 15 OFFCURVE",
"556 0 OFFCURVE",
"577 0 CURVE SMOOTH",
"591 0 LINE SMOOTH",
"616 0 OFFCURVE",
"631 41 OFFCURVE",
"603 58 CURVE SMOOTH",
"251 267 LINE",
"270 271 OFFCURVE",
"465 261 OFFCURVE",
"518 286 CURVE SMOOTH",
"586 318 OFFCURVE",
"621 372 OFFCURVE",
"621 455 CURVE SMOOTH",
"621 519 OFFCURVE",
"601 569 OFFCURVE",
"560 606 CURVE SMOOTH",
"519 643 OFFCURVE",
"465 662 OFFCURVE",
"398 662 CURVE SMOOTH",
"121 662 LINE SMOOTH",
"95 662 OFFCURVE",
"81 648 OFFCURVE",
"81 622 CURVE SMOOTH",
"81 40 LINE SMOOTH",
"81 14 OFFCURVE",
"95 0 OFFCURVE",
"119 0 CURVE SMOOTH",
"143 0 OFFCURVE",
"156 14 OFFCURVE",
"156 40 CURVE SMOOTH"
);
}
);
width = 600;
}
);
unicode = 0052;
},
{
glyphname = S;
lastChange = "2019-09-16 20:34:59 +0000";
layers = (
{
layerId = "2F22A4FE-F550-4776-9C81-47C8675FAB27";
paths = (
{
closed = 1;
nodes = (
"514 333 OFFCURVE",
"490 352 OFFCURVE",
"457 367 CURVE SMOOTH",
"424 382 OFFCURVE",
"390 393 OFFCURVE",
"353 401 CURVE SMOOTH",
"315 409 OFFCURVE",
"282 417 OFFCURVE",
"251 426 CURVE SMOOTH",
"219 435 OFFCURVE",
"192 447 OFFCURVE",
"171 463 CURVE SMOOTH",
"150 479 OFFCURVE",
"130 498 OFFCURVE",
"130 526 CURVE SMOOTH",
"130 593 OFFCURVE",
"189 637 OFFCURVE",
"287 637 CURVE SMOOTH",
"387 637 OFFCURVE",
"450 591 OFFCURVE",
"459 518 CURVE",
"460 488 OFFCURVE",
"476 466 OFFCURVE",
"502 466 CURVE SMOOTH",
"530 466 OFFCURVE",
"540 492 OFFCURVE",
"537 518 CURVE",
"530 575 OFFCURVE",
"509 610 OFFCURVE",
"471 645 CURVE SMOOTH",
"426 686 OFFCURVE",
"373 707 OFFCURVE",
"296 707 CURVE SMOOTH",
"212 707 OFFCURVE",
"158 690 OFFCURVE",
"116 655 CURVE SMOOTH",
"74 620 OFFCURVE",
"53 579 OFFCURVE",
"53 516 CURVE SMOOTH",
"53 473 OFFCURVE",
"61 448 OFFCURVE",
"84 425 CURVE SMOOTH",
"106 403 OFFCURVE",
"122 392 OFFCURVE",
"154 378 CURVE SMOOTH",
"186 364 OFFCURVE",
"220 352 OFFCURVE",
"257 345 CURVE SMOOTH",
"294 338 OFFCURVE",
"348 328 OFFCURVE",
"380 319 CURVE SMOOTH",
"413 310 OFFCURVE",
"438 286 OFFCURVE",
"459 271 CURVE SMOOTH",
"482 255 OFFCURVE",
"491 223 OFFCURVE",
"491 193 CURVE SMOOTH",
"491 150 OFFCURVE",
"470 107 OFFCURVE",
"430 92 CURVE SMOOTH",
"411 85 OFFCURVE",
"393 78 OFFCURVE",
"375 76 CURVE SMOOTH",
"345 73 OFFCURVE",
"304 72 OFFCURVE",
"283 72 CURVE SMOOTH",
"261 72 OFFCURVE",
"239 76 OFFCURVE",
"217 84 CURVE SMOOTH",
"158 105 OFFCURVE",
"113 158 OFFCURVE",
"104 224 CURVE",
"103 252 OFFCURVE",
"88 273 OFFCURVE",
"62 273 CURVE SMOOTH",
"36 273 OFFCURVE",
"29 252 OFFCURVE",
"29 224 CURVE",
"29 157 OFFCURVE",
"50 106 OFFCURVE",
"92 71 CURVE",
"150 19 OFFCURVE",
"220 -6 OFFCURVE",
"306 -8 CURVE SMOOTH",
"387 -10 OFFCURVE",
"449 9 OFFCURVE",
"497 46 CURVE SMOOTH",
"544 82 OFFCURVE",
"568 134 OFFCURVE",
"568 203 CURVE SMOOTH",
"568 247 OFFCURVE",
"557 282 OFFCURVE",
"536 307 CURVE SMOOTH"
);
}
);
width = 600;
}
);
unicode = 0053;
},
{
glyphname = T;
lastChange = "2019-08-24 03:50:33 +0000";
layers = (
{
layerId = "2F22A4FE-F550-4776-9C81-47C8675FAB27";
paths = (
{
closed = 1;
nodes = (
"551 689 OFFCURVE",
"537 702 OFFCURVE",
"511 702 CURVE SMOOTH",
"54 702 LINE SMOOTH",
"28 702 OFFCURVE",
"14 689 OFFCURVE",
"14 666 CURVE SMOOTH",
"14 643 OFFCURVE",
"28 630 OFFCURVE",
"54 630 CURVE SMOOTH",
"245 630 LINE",
"245 40 LINE SMOOTH",
"245 14 OFFCURVE",
"259 0 OFFCURVE",
"283 0 CURVE SMOOTH",
"307 0 OFFCURVE",
"320 14 OFFCURVE",
"320 40 CURVE SMOOTH",
"320 630 LINE",
"511 630 LINE SMOOTH",
"537 630 OFFCURVE",
"551 643 OFFCURVE",
"551 666 CURVE SMOOTH"
);
}
);
width = 600;
}
);
unicode = 0054;
},
{
glyphname = U;
lastChange = "2019-08-24 03:51:04 +0000";
layers = (
{
layerId = "2F22A4FE-F550-4776-9C81-47C8675FAB27";
paths = (
{
closed = 1;
nodes = (
"574 700 OFFCURVE",
"561 686 OFFCURVE",
"561 660 CURVE SMOOTH",
"561 283 LINE SMOOTH",
"561 175 OFFCURVE",
"497 116 QCURVE SMOOTH",
"441 65 OFFCURVE",
"354 65 QCURVE SMOOTH",
"267 65 OFFCURVE",
"212 116 QCURVE SMOOTH",
"148 176 OFFCURVE",
"148 283 QCURVE SMOOTH",
"148 660 LINE SMOOTH",
"148 686 OFFCURVE",
"135 700 OFFCURVE",
"111 700 CURVE SMOOTH",
"87 700 OFFCURVE",
"73 686 OFFCURVE",
"73 660 CURVE SMOOTH",
"73 285 LINE SMOOTH",
"73 153 OFFCURVE",
"230 -8 OFFCURVE",
"354 -8 QCURVE SMOOTH",
"479 -8 OFFCURVE",
"636 153 OFFCURVE",
"636 285 QCURVE SMOOTH",
"636 660 LINE SMOOTH",
"636 686 OFFCURVE",
"623 700 OFFCURVE",
"599 700 CURVE SMOOTH"
);
}
);
width = 600;
}
);
unicode = 0055;
},
{
glyphname = V;
lastChange = "2019-08-24 03:52:01 +0000";
layers = (
{
layerId = "2F22A4FE-F550-4776-9C81-47C8675FAB27";
paths = (
{
closed = 1;
nodes = (
"577 699 LINE SMOOTH",
"554 699 OFFCURVE",
"539 688 OFFCURVE",
"531 667 CURVE SMOOTH",
"314 85 LINE",
"97 667 LINE SMOOTH",
"89 688 OFFCURVE",
"74 699 OFFCURVE",
"51 699 CURVE SMOOTH",
"44 699 LINE SMOOTH",
"20 699 OFFCURVE",
"10 680 OFFCURVE",
"21 653 CURVE SMOOTH",
"250 55 LINE SMOOTH",
"264 17 OFFCURVE",
"285 0 OFFCURVE",
"314 0 CURVE SMOOTH",
"343 0 OFFCURVE",
"364 17 OFFCURVE",
"378 55 CURVE SMOOTH",
"607 653 LINE SMOOTH",
"618 680 OFFCURVE",
"608 699 OFFCURVE",
"584 699 CURVE SMOOTH"
);
}
);
width = 600;
}
);
unicode = 0056;
},
{
glyphname = W;
lastChange = "2019-08-24 03:54:00 +0000";
layers = (
{
layerId = "2F22A4FE-F550-4776-9C81-47C8675FAB27";
paths = (
{
closed = 1;
nodes = (
"356 588 LINE",
"527 58 LINE SMOOTH",
"540 19 OFFCURVE",
"561 0 OFFCURVE",
"591 0 CURVE SMOOTH",
"621 0 OFFCURVE",
"641 18 OFFCURVE",
"653 58 CURVE SMOOTH",
"839 655 LINE SMOOTH",
"847 682 OFFCURVE",
"835 700 OFFCURVE",
"806 700 CURVE SMOOTH",
"804 700 LINE SMOOTH",
"781 700 OFFCURVE",
"766 689 OFFCURVE",
"759 667 CURVE SMOOTH",
"590 112 LINE",
"420 642 LINE SMOOTH",
"408 681 OFFCURVE",
"386 700 OFFCURVE",
"356 700 CURVE SMOOTH",
"326 700 OFFCURVE",
"305 681 OFFCURVE",
"293 642 CURVE SMOOTH",
"123 112 LINE",
"-48 667 LINE SMOOTH",
"-55 689 OFFCURVE",
"-70 700 OFFCURVE",
"-93 700 CURVE SMOOTH",
"-100 700 LINE SMOOTH",
"-125 700 OFFCURVE",
"-135 682 OFFCURVE",
"-127 655 CURVE SMOOTH",
"59 58 LINE SMOOTH",
"71 18 OFFCURVE",
"92 0 OFFCURVE",
"122 0 CURVE SMOOTH",
"152 0 OFFCURVE",
"174 19 OFFCURVE",
"186 58 CURVE SMOOTH"
);
}
);
width = 600;
}
);
unicode = 0057;
},
{
glyphname = X;
lastChange = "2019-08-24 03:55:11 +0000";
layers = (
{
layerId = "2F22A4FE-F550-4776-9C81-47C8675FAB27";
paths = (
{
closed = 1;
nodes = (
"560 648 LINE SMOOTH",
"580 676 OFFCURVE",
"569 700 OFFCURVE",
"536 700 CURVE SMOOTH",
"533 700 LINE SMOOTH",
"512 700 OFFCURVE",
"498 693 OFFCURVE",
"485 675 CURVE SMOOTH",
"306 425 LINE",
"128 675 LINE SMOOTH",
"115 693 OFFCURVE",
"101 700 OFFCURVE",
"80 700 CURVE SMOOTH",
"63 700 LINE SMOOTH",
"37 700 OFFCURVE",
"33 676 OFFCURVE",
"53 648 CURVE SMOOTH",
"261 362 LINE",
"35 52 LINE SMOOTH",
"15 24 OFFCURVE",
"26 0 OFFCURVE",
"59 0 CURVE SMOOTH",
"62 0 LINE SMOOTH",
"83 0 OFFCURVE",
"97 7 OFFCURVE",
"110 25 CURVE SMOOTH",
"306 300 LINE",
"503 25 LINE SMOOTH",
"516 7 OFFCURVE",
"530 0 OFFCURVE",
"551 0 CURVE SMOOTH",
"569 0 LINE SMOOTH",
"595 0 OFFCURVE",
"598 24 OFFCURVE",
"578 52 CURVE SMOOTH",
"352 362 LINE"
);
}
);
width = 600;
}
);
unicode = 0058;
},
{
glyphname = Y;
lastChange = "2019-08-24 03:55:51 +0000";
layers = (
{
layerId = "2F22A4FE-F550-4776-9C81-47C8675FAB27";
paths = (
{
closed = 1;
nodes = (
"352 277 LINE",
"597 652 LINE SMOOTH",
"615 680 OFFCURVE",
"603 700 OFFCURVE",
"571 700 CURVE SMOOTH",
"569 700 LINE SMOOTH",
"548 700 OFFCURVE",
"533 692 OFFCURVE",
"521 674 CURVE SMOOTH",
"314 360 LINE",
"107 674 LINE SMOOTH",
"95 692 OFFCURVE",
"80 700 OFFCURVE",
"59 700 CURVE SMOOTH",
"45 700 LINE SMOOTH",
"20 700 OFFCURVE",
"13 680 OFFCURVE",
"31 652 CURVE SMOOTH",
"277 277 LINE",
"277 40 LINE SMOOTH",
"277 14 OFFCURVE",
"291 0 OFFCURVE",
"315 0 CURVE SMOOTH",
"339 0 OFFCURVE",
"352 14 OFFCURVE",
"352 40 CURVE SMOOTH"
);
}
);
width = 600;
}
);
unicode = 0059;
},
{
glyphname = Yacute;
lastChange = "2019-09-19 20:00:59 +0000";
layers = (
{
components = (
{
name = grave;
transform = "{1, 0, 0, 1, 0, 270}";
}
);
layerId = "2F22A4FE-F550-4776-9C81-47C8675FAB27";
paths = (
{
closed = 1;
nodes = (
"352 277 LINE",
"597 652 LINE SMOOTH",
"615 680 OFFCURVE",
"603 700 OFFCURVE",
"571 700 CURVE SMOOTH",
"569 700 LINE SMOOTH",
"548 700 OFFCURVE",
"533 692 OFFCURVE",
"521 674 CURVE SMOOTH",
"314 360 LINE",
"107 674 LINE SMOOTH",
"95 692 OFFCURVE",
"80 700 OFFCURVE",
"59 700 CURVE SMOOTH",
"45 700 LINE SMOOTH",
"20 700 OFFCURVE",
"13 680 OFFCURVE",
"31 652 CURVE SMOOTH",
"277 277 LINE",
"277 40 LINE SMOOTH",
"277 14 OFFCURVE",
"291 0 OFFCURVE",
"315 0 CURVE SMOOTH",
"339 0 OFFCURVE",
"352 14 OFFCURVE",
"352 40 CURVE SMOOTH"
);
}
);
width = 600;
}
);
unicode = 00DD;
},
{
glyphname = Z;
lastChange = "2019-08-24 03:56:27 +0000";
layers = (
{
layerId = "2F22A4FE-F550-4776-9C81-47C8675FAB27";
paths = (
{
closed = 1;
nodes = (
"523 586 LINE SMOOTH",
"544 613 OFFCURVE",
"553 635 OFFCURVE",
"553 662 CURVE SMOOTH",
"553 686 OFFCURVE",
"528 700 OFFCURVE",
"483 700 CURVE SMOOTH",
"75 700 LINE SMOOTH",
"49 700 OFFCURVE",
"35 687 OFFCURVE",
"35 663 CURVE SMOOTH",
"35 639 OFFCURVE",
"49 626 OFFCURVE",
"75 626 CURVE SMOOTH",
"461 626 LINE",
"59 113 LINE SMOOTH",
"38 86 OFFCURVE",
"29 64 OFFCURVE",
"29 38 CURVE SMOOTH",
"29 14 OFFCURVE",
"54 0 OFFCURVE",
"99 0 CURVE SMOOTH",
"513 0 LINE SMOOTH",
"539 0 OFFCURVE",
"553 13 OFFCURVE",
"553 37 CURVE SMOOTH",
"553 61 OFFCURVE",
"539 74 OFFCURVE",
"513 74 CURVE SMOOTH",
"121 74 LINE"
);
}
);
width = 600;
}
);
unicode = 005A;
},
{
glyphname = a;
lastChange = "2019-08-24 03:57:51 +0000";
layers = (
{
layerId = "2F22A4FE-F550-4776-9C81-47C8675FAB27";
paths = (
{
closed = 1;
nodes = (
"455 40 LINE SMOOTH",
"455 14 OFFCURVE",
"469 0 OFFCURVE",
"493 0 CURVE SMOOTH",
"517 0 OFFCURVE",
"530 14 OFFCURVE",
"530 40 CURVE SMOOTH",
"530 460 LINE SMOOTH",
"530 486 OFFCURVE",
"517 500 OFFCURVE",
"493 500 CURVE SMOOTH",
"469 500 OFFCURVE",
"455 486 OFFCURVE",
"455 460 CURVE SMOOTH",
"455 419 LINE",
"394 508 OFFCURVE",
"168 508 OFFCURVE",
"100 433 QCURVE SMOOTH",
"34 359 OFFCURVE",
"34 250 QCURVE SMOOTH",
"34 141 OFFCURVE",
"100 67 QCURVE SMOOTH",
"168 -8 OFFCURVE",
"276 -8 QCURVE SMOOTH",
"395 -8 OFFCURVE",
"455 80 QCURVE"
);
},
{
closed = 1;
nodes = (
"206 60 OFFCURVE",
"156 116 QCURVE SMOOTH",
"109 169 OFFCURVE",
"109 250 QCURVE SMOOTH",
"109 331 OFFCURVE",
"156 384 QCURVE SMOOTH",
"206 440 OFFCURVE",
"286 440 QCURVE SMOOTH",
"367 440 OFFCURVE",
"414 384 QCURVE SMOOTH",
"459 331 OFFCURVE",
"459 250 QCURVE SMOOTH",
"459 169 OFFCURVE",
"414 116 QCURVE SMOOTH",
"367 60 OFFCURVE",
"286 60 QCURVE SMOOTH"
);
}
);
width = 600;
}
);
unicode = 0061;
},
{
glyphname = b;
lastChange = "2019-08-24 03:58:44 +0000";
layers = (
{
layerId = "2F22A4FE-F550-4776-9C81-47C8675FAB27";
paths = (
{
closed = 1;
nodes = (
"140 760 LINE SMOOTH",
"140 786 OFFCURVE",
"127 800 OFFCURVE",
"103 800 CURVE SMOOTH",
"79 800 OFFCURVE",
"65 786 OFFCURVE",
"65 760 CURVE SMOOTH",
"65 40 LINE SMOOTH",
"65 14 OFFCURVE",
"79 0 OFFCURVE",
"103 0 CURVE SMOOTH",
"127 0 OFFCURVE",
"140 14 OFFCURVE",
"140 40 CURVE SMOOTH",
"140 80 LINE",
"200 -8 OFFCURVE",
"427 -8 OFFCURVE",
"494 67 QCURVE SMOOTH",
"561 141 OFFCURVE",
"561 250 QCURVE SMOOTH",
"561 359 OFFCURVE",
"494 433 QCURVE SMOOTH",
"427 508 OFFCURVE",
"319 508 QCURVE SMOOTH",
"201 508 OFFCURVE",
"140 419 QCURVE"
);
},
{
closed = 1;
nodes = (
"228 60 OFFCURVE",
"181 116 QCURVE SMOOTH",
"136 169 OFFCURVE",
"136 250 QCURVE SMOOTH",
"136 331 OFFCURVE",
"181 384 QCURVE SMOOTH",
"228 440 OFFCURVE",
"309 440 QCURVE SMOOTH",
"389 440 OFFCURVE",
"439 384 QCURVE SMOOTH",
"486 331 OFFCURVE",
"486 250 QCURVE SMOOTH",
"486 169 OFFCURVE",
"439 116 QCURVE SMOOTH",
"389 60 OFFCURVE",
"309 60 QCURVE SMOOTH"
);
}
);
width = 600;
}
);
unicode = 0062;
},
{
glyphname = c;
lastChange = "2019-08-24 04:09:02 +0000";
layers = (
{
layerId = "2F22A4FE-F550-4776-9C81-47C8675FAB27";
paths = (
{
closed = 1;
nodes = (
"364 -10 OFFCURVE",
"438 16 OFFCURVE",
"471 36 QCURVE SMOOTH",
"491 48 OFFCURVE",
"491 70 QCURVE SMOOTH",
"491 84 OFFCURVE",
"468 108 OFFCURVE",
"453 108 QCURVE SMOOTH",
"442 108 OFFCURVE",
"434 103 QCURVE SMOOTH",
"404 84 OFFCURVE",
"354 62 OFFCURVE",
"319 62 QCURVE SMOOTH",
"233 62 OFFCURVE",
"121 167 OFFCURVE",
"121 245 QCURVE SMOOTH",
"121 323 OFFCURVE",
"233 430 OFFCURVE",
"319 430 QCURVE SMOOTH",
"354 430 OFFCURVE",
"396 411 OFFCURVE",
"429 393 QCURVE SMOOTH",
"440 387 OFFCURVE",
"451 388 QCURVE SMOOTH",
"466 389 OFFCURVE",
"489 412 OFFCURVE",
"489 426 QCURVE SMOOTH",
"489 447 OFFCURVE",
"474 454 QCURVE SMOOTH",
"442 475 OFFCURVE",
"364 500 OFFCURVE",
"311 500 QCURVE SMOOTH",
"239 500 OFFCURVE",
"117 438 OFFCURVE",
"44 323 OFFCURVE",
"44 245 QCURVE SMOOTH",
"44 167 OFFCURVE",
"117 52 OFFCURVE",
"239 -10 OFFCURVE",
"311 -10 QCURVE SMOOTH"
);
}
);
width = 600;
}
);
unicode = 0063;
},
{
glyphname = d;
lastChange = "2019-09-13 00:59:21 +0000";
layers = (
{
layerId = "2F22A4FE-F550-4776-9C81-47C8675FAB27";
paths = (
{
closed = 1;
nodes = (
"388 508 OFFCURVE",
"270 508 QCURVE SMOOTH",
"162 508 OFFCURVE",
"95 433 QCURVE SMOOTH",
"28 359 OFFCURVE",
"28 250 QCURVE SMOOTH",
"28 141 OFFCURVE",
"95 67 QCURVE SMOOTH",
"162 -8 OFFCURVE",
"389 -8 OFFCURVE",
"449 80 QCURVE",
"449 40 LINE SMOOTH",
"449 14 OFFCURVE",
"462 0 OFFCURVE",
"486 0 CURVE SMOOTH",
"510 0 OFFCURVE",
"524 14 OFFCURVE",
"524 40 CURVE SMOOTH",
"524 760 LINE SMOOTH",
"524 786 OFFCURVE",
"510 800 OFFCURVE",
"486 800 CURVE SMOOTH",
"462 800 OFFCURVE",
"449 786 OFFCURVE",
"449 760 CURVE SMOOTH",
"449 419 LINE"
);
},
{
closed = 1;
nodes = (
"200 60 OFFCURVE",
"150 116 QCURVE SMOOTH",
"103 169 OFFCURVE",
"103 250 QCURVE SMOOTH",
"103 331 OFFCURVE",
"150 384 QCURVE SMOOTH",
"200 440 OFFCURVE",
"280 440 QCURVE SMOOTH",
"361 440 OFFCURVE",
"408 384 QCURVE SMOOTH",
"453 331 OFFCURVE",
"453 250 QCURVE SMOOTH",
"453 169 OFFCURVE",
"408 116 QCURVE SMOOTH",
"361 60 OFFCURVE",
"280 60 QCURVE SMOOTH"
);
}
);
width = 600;
}
);
unicode = 0064;
},
{
glyphname = e;
lastChange = "2019-09-14 20:14:31 +0000";
layers = (
{
layerId = "2F22A4FE-F550-4776-9C81-47C8675FAB27";
paths = (
{
closed = 1;
nodes = (
"428 467 OFFCURVE",
"409 478 OFFCURVE",
"383 487 CURVE SMOOTH",
"356 496 OFFCURVE",
"325 500 OFFCURVE",
"311 500 CURVE SMOOTH",
"263 500 OFFCURVE",
"219 490 OFFCURVE",
"178 469 CURVE SMOOTH",
"137 448 OFFCURVE",
"105 419 OFFCURVE",
"81 381 CURVE SMOOTH",
"56 342 OFFCURVE",
"44 297 OFFCURVE",
"44 245 CURVE SMOOTH",
"44 193 OFFCURVE",
"56 148 OFFCURVE",
"81 110 CURVE SMOOTH",
"105 71 OFFCURVE",
"137 42 OFFCURVE",
"178 21 CURVE SMOOTH",
"219 0 OFFCURVE",
"263 -10 OFFCURVE",
"311 -10 CURVE SMOOTH",
"346 -10 OFFCURVE",
"376 -6 OFFCURVE",
"401 3 CURVE SMOOTH",
"426 12 OFFCURVE",
"449 23 OFFCURVE",
"471 36 CURVE SMOOTH",
"484 44 OFFCURVE",
"491 55 OFFCURVE",
"491 70 CURVE SMOOTH",
"491 79 OFFCURVE",
"489 81 OFFCURVE",
"482 89 CURVE",
"474 97 OFFCURVE",
"465 101 OFFCURVE",
"455 101 CURVE SMOOTH",
"448 101 OFFCURVE",
"441 99 OFFCURVE",
"436 96 CURVE",
"416 83 OFFCURVE",
"398 73 OFFCURVE",
"381 66 CURVE SMOOTH",
"364 59 OFFCURVE",
"344 55 OFFCURVE",
"321 55 CURVE SMOOTH",
"264 55 OFFCURVE",
"218 75 OFFCURVE",
"179 108 CURVE SMOOTH",
"125 153 OFFCURVE",
"114 245 OFFCURVE",
"120 269 CURVE SMOOTH",
"122 277 LINE",
"465 274 LINE SMOOTH",
"491 274 OFFCURVE",
"511 279 OFFCURVE",
"511 313 CURVE SMOOTH",
"511 330 LINE",
"511 357 OFFCURVE",
"498 412 OFFCURVE",
"449 453 CURVE"
);
},
{
closed = 1;
nodes = (
"146 349 OFFCURVE",
"162 371 OFFCURVE",
"177 386 CURVE SMOOTH",
"213 422 OFFCURVE",
"262 439 OFFCURVE",
"319 439 CURVE SMOOTH",
"321 439 OFFCURVE",
"340 436 OFFCURVE",
"353 431 CURVE",
"366 425 OFFCURVE",
"385 421 OFFCURVE",
"408 402 CURVE SMOOTH",
"427 386 OFFCURVE",
"447 361 OFFCURVE",
"452 332 CURVE",
"137 332 LINE"
);
}
);
width = 600;
}
);
unicode = 0065;
},
{
glyphname = ecircumflex;
lastChange = "2019-09-19 19:08:58 +0000";
layers = (
{
layerId = "2F22A4FE-F550-4776-9C81-47C8675FAB27";
paths = (
{
closed = 1;
nodes = (
"162 571 OFFCURVE",
"174 583 OFFCURVE",
"182 592 CURVE SMOOTH",
"282 705 LINE",
"286 708 OFFCURVE",
"290 708 OFFCURVE",
"294 705 CURVE",
"388 592 LINE SMOOTH",
"394 584 OFFCURVE",
"408 567 OFFCURVE",
"426 582 CURVE SMOOTH",
"441 595 OFFCURVE",
"434 614 OFFCURVE",
"428 622 CURVE SMOOTH",
"351 717 LINE SMOOTH",
"344 725 OFFCURVE",
"316 757 OFFCURVE",
"290 757 CURVE SMOOTH",
"265 757 OFFCURVE",
"236 725 OFFCURVE",
"229 717 CURVE SMOOTH",
"145 621 LINE SMOOTH",
"138 613 OFFCURVE",
"131 594 OFFCURVE",
"147 582 CURVE SMOOTH"
);
},
{
closed = 1;
nodes = (
"428 467 OFFCURVE",
"409 478 OFFCURVE",
"383 487 CURVE SMOOTH",
"356 496 OFFCURVE",
"325 500 OFFCURVE",
"311 500 CURVE SMOOTH",
"263 500 OFFCURVE",
"219 490 OFFCURVE",
"178 469 CURVE SMOOTH",
"137 448 OFFCURVE",
"105 419 OFFCURVE",
"81 381 CURVE SMOOTH",
"56 342 OFFCURVE",
"44 297 OFFCURVE",
"44 245 CURVE SMOOTH",
"44 193 OFFCURVE",
"56 148 OFFCURVE",
"81 110 CURVE SMOOTH",
"105 71 OFFCURVE",
"137 42 OFFCURVE",
"178 21 CURVE SMOOTH",
"219 0 OFFCURVE",
"263 -10 OFFCURVE",
"311 -10 CURVE SMOOTH",
"346 -10 OFFCURVE",
"376 -6 OFFCURVE",
"401 3 CURVE SMOOTH",
"426 12 OFFCURVE",
"449 23 OFFCURVE",
"471 36 CURVE SMOOTH",
"484 44 OFFCURVE",
"491 55 OFFCURVE",
"491 70 CURVE SMOOTH",
"491 79 OFFCURVE",
"489 81 OFFCURVE",
"482 89 CURVE",
"474 97 OFFCURVE",
"465 101 OFFCURVE",
"455 101 CURVE SMOOTH",
"448 101 OFFCURVE",
"441 99 OFFCURVE",
"436 96 CURVE",
"416 83 OFFCURVE",
"398 73 OFFCURVE",
"381 66 CURVE SMOOTH",
"364 59 OFFCURVE",
"344 55 OFFCURVE",
"321 55 CURVE SMOOTH",
"264 55 OFFCURVE",
"218 75 OFFCURVE",
"179 108 CURVE SMOOTH",
"125 153 OFFCURVE",
"114 245 OFFCURVE",
"120 269 CURVE SMOOTH",
"122 277 LINE",
"465 274 LINE SMOOTH",
"491 274 OFFCURVE",
"511 279 OFFCURVE",
"511 313 CURVE SMOOTH",
"511 330 LINE",
"511 357 OFFCURVE",
"498 412 OFFCURVE",
"449 453 CURVE"
);
},
{
closed = 1;
nodes = (
"146 349 OFFCURVE",
"162 371 OFFCURVE",
"177 386 CURVE SMOOTH",
"213 422 OFFCURVE",
"262 439 OFFCURVE",
"319 439 CURVE SMOOTH",
"321 439 OFFCURVE",
"340 436 OFFCURVE",
"353 431 CURVE",
"366 425 OFFCURVE",
"385 421 OFFCURVE",
"408 402 CURVE SMOOTH",
"427 386 OFFCURVE",
"447 361 OFFCURVE",
"452 332 CURVE",
"137 332 LINE"
);
}
);
width = 600;
}
);
unicode = 00EA;
},
{
glyphname = f;
lastChange = "2019-08-24 21:38:57 +0000";
layers = (
{
background = {
paths = (
{
closed = 1;
nodes = (
"292 737 OFFCURVE",
"338 740 OFFCURVE",
"359 700 CURVE SMOOTH",
"378 664 OFFCURVE",
"393 637 OFFCURVE",
"420 647 CURVE SMOOTH",
"438 654 OFFCURVE",
"446 666 OFFCURVE",
"433 700 CURVE SMOOTH",
"417 742 OFFCURVE",
"380 784 OFFCURVE",
"320 800 CURVE",
"263 814 OFFCURVE",
"204 794 OFFCURVE",
"172 770 CURVE SMOOTH",
"136 743 OFFCURVE",
"119 689 OFFCURVE",
"119 544 CURVE SMOOTH",
"119 500 LINE",
"52 500 LINE SMOOTH",
"26 500 OFFCURVE",
"12 488 OFFCURVE",
"12 467 CURVE SMOOTH",
"12 446 OFFCURVE",
"26 434 OFFCURVE",
"52 434 CURVE SMOOTH",
"119 434 LINE",
"119 0 LINE",
"194 0 LINE",
"194 434 LINE",
"270 434 LINE SMOOTH",
"296 434 OFFCURVE",
"310 446 OFFCURVE",
"310 467 CURVE SMOOTH",
"310 488 OFFCURVE",
"296 500 OFFCURVE",
"270 500 CURVE SMOOTH",
"194 500 LINE",
"194 538 LINE SMOOTH",
"194 573 OFFCURVE",
"182 654 OFFCURVE",
"213 700 CURVE SMOOTH",
"236 734 OFFCURVE",
"247 737 OFFCURVE",
"282 737 CURVE"
);
}
);
};
layerId = "2F22A4FE-F550-4776-9C81-47C8675FAB27";
paths = (
{
closed = 1;
nodes = (
"292 737 OFFCURVE",
"348 730 OFFCURVE",
"369 690 CURVE SMOOTH",
"388 654 OFFCURVE",
"403 637 OFFCURVE",
"430 647 CURVE SMOOTH",
"448 654 OFFCURVE",
"446 676 OFFCURVE",
"433 710 CURVE SMOOTH",
"417 752 OFFCURVE",
"380 784 OFFCURVE",
"320 800 CURVE SMOOTH",
"263 814 OFFCURVE",
"204 794 OFFCURVE",
"172 770 CURVE SMOOTH",
"136 743 OFFCURVE",
"119 689 OFFCURVE",
"119 544 CURVE SMOOTH",
"119 500 LINE",
"52 500 LINE SMOOTH",
"26 500 OFFCURVE",
"12 488 OFFCURVE",
"12 467 CURVE SMOOTH",
"12 446 OFFCURVE",
"26 434 OFFCURVE",
"52 434 CURVE SMOOTH",
"119 434 LINE",
"119 0 LINE",
"194 0 LINE",
"194 434 LINE",
"270 434 LINE SMOOTH",
"296 434 OFFCURVE",
"310 446 OFFCURVE",
"310 467 CURVE SMOOTH",
"310 488 OFFCURVE",
"296 500 OFFCURVE",
"270 500 CURVE SMOOTH",
"194 500 LINE",
"194 548 LINE SMOOTH",
"194 706 OFFCURVE",
"207 737 OFFCURVE",
"282 737 CURVE SMOOTH"
);
}
);
width = 600;
}
);
unicode = 0066;
},
{
glyphname = g;
lastChange = "2019-08-24 21:47:27 +0000";
layers = (
{
layerId = "2F22A4FE-F550-4776-9C81-47C8675FAB27";
paths = (
{
closed = 1;
nodes = (
"34 146 OFFCURVE",
"100 74 QCURVE SMOOTH",
"168 0 OFFCURVE",
"276 0 QCURVE SMOOTH",
"394 0 OFFCURVE",
"455 89 QCURVE",
"455 -200 LINE SMOOTH",
"455 -278 OFFCURVE",
"377 -358 OFFCURVE",
"290 -358 QCURVE SMOOTH",
"176 -358 OFFCURVE",
"144 -280 QCURVE SMOOTH",
"134 -256 OFFCURVE",
"136 -238 OFFCURVE",
"104 -238 CURVE SMOOTH",
"100 -238 OFFCURVE",
"49 -235 OFFCURVE",
"61 -280 CURVE",
"82 -346 OFFCURVE",
"199 -426 OFFCURVE",
"407 -426 OFFCURVE",
"530 -308 OFFCURVE",
"530 -200 QCURVE SMOOTH",
"530 460 LINE SMOOTH",
"530 486 OFFCURVE",
"517 500 OFFCURVE",
"493 500 CURVE SMOOTH",
"469 500 OFFCURVE",
"455 486 OFFCURVE",
"455 460 CURVE SMOOTH",
"455 420 LINE",
"395 508 OFFCURVE",
"168 508 OFFCURVE",
"100 434 QCURVE SMOOTH",
"34 362 OFFCURVE",
"34 254 QCURVE SMOOTH"
);
},
{
closed = 1;
nodes = (
"109 333 OFFCURVE",
"156 386 QCURVE SMOOTH",
"205 440 OFFCURVE",
"286 440 QCURVE SMOOTH",
"365 440 OFFCURVE",
"414 386 QCURVE SMOOTH",
"459 334 OFFCURVE",
"459 254 QCURVE SMOOTH",
"459 174 OFFCURVE",
"414 122 QCURVE SMOOTH",
"391 97 OFFCURVE",
"327 68 OFFCURVE",
"286 68 QCURVE SMOOTH",
"205 68 OFFCURVE",
"156 122 QCURVE SMOOTH",
"109 175 OFFCURVE",
"109 254 QCURVE SMOOTH"
);
}
);
width = 600;
}
);
unicode = 0067;
},
{
glyphname = h;
lastChange = "2019-08-24 23:46:19 +0000";
layers = (
{
layerId = "2F22A4FE-F550-4776-9C81-47C8675FAB27";
paths = (
{
closed = 1;
nodes = (
"78 800 OFFCURVE",
"65 786 OFFCURVE",
"65 760 CURVE SMOOTH",
"65 40 LINE SMOOTH",
"65 14 OFFCURVE",
"79 0 OFFCURVE",
"103 0 CURVE SMOOTH",
"127 0 OFFCURVE",
"140 14 OFFCURVE",
"140 40 CURVE SMOOTH",
"140 288 LINE SMOOTH",
"140 355 OFFCURVE",
"184 398 QCURVE SMOOTH",
"228 440 OFFCURVE",
"291 440 QCURVE SMOOTH",
"353 440 OFFCURVE",
"431 358 OFFCURVE",
"431 289 QCURVE SMOOTH",
"431 40 LINE SMOOTH",
"431 14 OFFCURVE",
"445 0 OFFCURVE",
"469 0 CURVE SMOOTH",
"493 0 OFFCURVE",
"506 14 OFFCURVE",
"506 40 CURVE SMOOTH",
"506 291 LINE SMOOTH",
"506 391 OFFCURVE",
"444 452 QCURVE SMOOTH",
"417 480 OFFCURVE",
"345 508 OFFCURVE",
"245 508 OFFCURVE",
"167 458 OFFCURVE",
"140 422 QCURVE",
"140 760 LINE SMOOTH",
"140 786 OFFCURVE",
"127 800 OFFCURVE",
"103 800 CURVE SMOOTH"
);
}
);
width = 600;
}
);
unicode = 0068;
},
{
glyphname = i;
lastChange = "2019-09-13 00:27:17 +0000";
layers = (
{
layerId = "2F22A4FE-F550-4776-9C81-47C8675FAB27";
paths = (
{
closed = 1;
nodes = (
"255 40 LINE SMOOTH",
"255 14 OFFCURVE",
"268 0 OFFCURVE",
"290 0 CURVE SMOOTH",
"316 0 OFFCURVE",
"330 14 OFFCURVE",
"330 40 CURVE SMOOTH",
"330 460 LINE SMOOTH",
"330 486 OFFCURVE",
"317 500 OFFCURVE",
"293 500 CURVE SMOOTH",
"269 500 OFFCURVE",
"255 486 OFFCURVE",
"255 460 CURVE SMOOTH"
);
},
{
closed = 1;
nodes = (
"315 608 OFFCURVE",
"336 629 OFFCURVE",
"336 655 CURVE SMOOTH",
"336 681 OFFCURVE",
"315 702 OFFCURVE",
"289 702 CURVE SMOOTH",
"263 702 OFFCURVE",
"242 681 OFFCURVE",
"242 655 CURVE SMOOTH",
"242 629 OFFCURVE",
"263 608 OFFCURVE",
"289 608 CURVE SMOOTH"
);
}
);
width = 600;
}
);
unicode = 0069;
},
{
glyphname = j;
lastChange = "2019-08-24 21:49:38 +0000";
layers = (
{
layerId = "2F22A4FE-F550-4776-9C81-47C8675FAB27";
paths = (
{
closed = 1;
nodes = (
"455 89 LINE",
"455 -200 LINE SMOOTH",
"455 -278 OFFCURVE",
"377 -358 OFFCURVE",
"290 -358 QCURVE SMOOTH",
"176 -358 OFFCURVE",
"144 -280 QCURVE SMOOTH",
"134 -256 OFFCURVE",
"136 -238 OFFCURVE",
"104 -238 CURVE SMOOTH",
"100 -238 OFFCURVE",
"49 -235 OFFCURVE",
"61 -280 CURVE",
"82 -346 OFFCURVE",
"199 -426 OFFCURVE",
"407 -426 OFFCURVE",
"530 -308 OFFCURVE",
"530 -200 QCURVE SMOOTH",
"530 460 LINE SMOOTH",
"530 486 OFFCURVE",
"517 500 OFFCURVE",
"493 500 CURVE SMOOTH",
"469 500 OFFCURVE",
"455 486 OFFCURVE",
"455 460 CURVE SMOOTH",
"455 420 LINE"
);
},
{
closed = 1;
nodes = (
"515 608 OFFCURVE",
"536 629 OFFCURVE",
"536 655 CURVE SMOOTH",
"536 681 OFFCURVE",
"515 702 OFFCURVE",
"489 702 CURVE SMOOTH",
"463 702 OFFCURVE",
"442 681 OFFCURVE",
"442 655 CURVE SMOOTH",
"442 629 OFFCURVE",
"463 608 OFFCURVE",
"489 608 CURVE SMOOTH"
);
}
);
width = 600;
}
);
unicode = 006A;
},
{
glyphname = k;
lastChange = "2019-08-24 23:53:06 +0000";
layers = (
{
layerId = "2F22A4FE-F550-4776-9C81-47C8675FAB27";
paths = (
{
closed = 1;
nodes = (
"472 17 OFFCURVE",
"426 67 CURVE SMOOTH",
"236 276 LINE",
"421 480 LINE SMOOTH",
"458 521 OFFCURVE",
"388 570 OFFCURVE",
"352 527 CURVE",
"164 310 LINE",
"164 760 LINE SMOOTH",
"164 786 OFFCURVE",
"150 800 OFFCURVE",
"124 800 CURVE SMOOTH",
"113 800 LINE SMOOTH",
"98 800 OFFCURVE",
"84 786 OFFCURVE",
"84 760 CURVE SMOOTH",
"84 40 LINE SMOOTH",
"84 14 OFFCURVE",
"98 0 OFFCURVE",
"113 0 CURVE SMOOTH",
"124 0 LINE SMOOTH",
"150 0 OFFCURVE",
"164 14 OFFCURVE",
"164 40 CURVE SMOOTH",
"164 247 LINE",
"355 23 LINE SMOOTH",
"398 -28 OFFCURVE"
);
}
);
width = 600;
}
);
unicode = 006B;
},
{
glyphname = l;
lastChange = "2019-08-24 23:54:03 +0000";
layers = (
{
layerId = "2F22A4FE-F550-4776-9C81-47C8675FAB27";
paths = (
{
closed = 1;
nodes = (
"256 40 LINE SMOOTH",
"256 14 OFFCURVE",
"270 0 OFFCURVE",
"296 0 CURVE SMOOTH",
"305 0 LINE SMOOTH",
"331 0 OFFCURVE",
"345 14 OFFCURVE",
"345 40 CURVE SMOOTH",
"345 750 LINE SMOOTH",
"345 776 OFFCURVE",
"331 790 OFFCURVE",
"305 790 CURVE SMOOTH",
"296 790 LINE SMOOTH",
"270 790 OFFCURVE",
"256 776 OFFCURVE",
"256 750 CURVE SMOOTH"
);
}
);
width = 600;
}
);
unicode = 006C;
},
{
glyphname = m;
lastChange = "2019-08-25 00:00:08 +0000";
layers = (
{
layerId = "2F22A4FE-F550-4776-9C81-47C8675FAB27";
paths = (
{
closed = 1;
nodes = (
"140 460 LINE SMOOTH",
"140 490 OFFCURVE",
"127 504 OFFCURVE",
"103 504 CURVE SMOOTH",
"79 504 OFFCURVE",
"65 490 OFFCURVE",
"65 460 CURVE SMOOTH",
"65 40 LINE SMOOTH",
"65 14 OFFCURVE",
"79 0 OFFCURVE",
"103 0 CURVE SMOOTH",
"127 0 OFFCURVE",
"140 14 OFFCURVE",
"140 40 CURVE SMOOTH",
"140 299 LINE SMOOTH",
"141 378 OFFCURVE",
"190 413 QCURVE SMOOTH",
"232 443 OFFCURVE",
"288 443 QCURVE SMOOTH",
"332 443 OFFCURVE",
"364 402 QCURVE SMOOTH",
"399 362 OFFCURVE",
"399 305 QCURVE SMOOTH",
"399 40 LINE SMOOTH",
"399 14 OFFCURVE",
"413 0 OFFCURVE",
"437 0 CURVE SMOOTH",
"461 0 OFFCURVE",
"474 14 OFFCURVE",
"474 40 CURVE SMOOTH",
"474 299 LINE SMOOTH",
"474 365 OFFCURVE",
"514 403 QCURVE SMOOTH",
"552 440 OFFCURVE",
"609 440 QCURVE SMOOTH",
"663 440 OFFCURVE",
"698 402 QCURVE SMOOTH",
"733 362 OFFCURVE",
"733 300 QCURVE SMOOTH",
"733 40 LINE SMOOTH",
"733 14 OFFCURVE",
"747 0 OFFCURVE",
"771 0 CURVE SMOOTH",
"795 0 OFFCURVE",
"808 14 OFFCURVE",
"808 40 CURVE SMOOTH",
"808 302 LINE SMOOTH",
"808 392 OFFCURVE",
"752 452 QCURVE SMOOTH",
"726 479 OFFCURVE",
"659 508 OFFCURVE",
"586 508 OFFCURVE",
"557 497 QCURVE SMOOTH",
"485 470 OFFCURVE",
"451 407 QCURVE",
"427 455 OFFCURVE",
"342 508 OFFCURVE",
"292 508 QCURVE SMOOTH",
"190 508 OFFCURVE",
"140 434 QCURVE"
);
}
);
width = 600;
}
);
unicode = 006D;
},
{
glyphname = n;
lastChange = "2019-08-25 00:00:58 +0000";
layers = (
{
layerId = "2F22A4FE-F550-4776-9C81-47C8675FAB27";
paths = (
{
closed = 1;
nodes = (
"140 460 LINE SMOOTH",
"140 490 OFFCURVE",
"127 504 OFFCURVE",
"103 504 CURVE SMOOTH",
"79 504 OFFCURVE",
"65 490 OFFCURVE",
"65 460 CURVE SMOOTH",
"65 40 LINE SMOOTH",
"65 14 OFFCURVE",
"79 0 OFFCURVE",
"103 0 CURVE SMOOTH",
"127 0 OFFCURVE",
"140 14 OFFCURVE",
"140 40 CURVE SMOOTH",
"140 299 LINE SMOOTH",
"141 378 OFFCURVE",
"190 413 QCURVE SMOOTH",
"232 443 OFFCURVE",
"288 443 QCURVE SMOOTH",
"332 443 OFFCURVE",
"364 402 QCURVE SMOOTH",
"399 362 OFFCURVE",
"399 305 QCURVE SMOOTH",
"399 40 LINE SMOOTH",
"399 14 OFFCURVE",
"413 0 OFFCURVE",
"437 0 CURVE SMOOTH",
"461 0 OFFCURVE",
"474 14 OFFCURVE",
"474 40 CURVE SMOOTH",
"474 299 LINE SMOOTH",
"474 365 OFFCURVE",
"451 407 QCURVE",
"427 455 OFFCURVE",
"342 508 OFFCURVE",
"292 508 QCURVE SMOOTH",
"190 508 OFFCURVE",
"140 434 QCURVE"
);
}
);
width = 600;
}
);
unicode = 006E;
},
{
glyphname = o;
lastChange = "2019-08-25 00:12:23 +0000";
layers = (
{
layerId = "2F22A4FE-F550-4776-9C81-47C8675FAB27";
paths = (
{
closed = 1;
nodes = (
"243 556 OFFCURVE",
"118 488 OFFCURVE",
"46 360 OFFCURVE",
"46 274 QCURVE SMOOTH",
"46 188 OFFCURVE",
"118 61 OFFCURVE",
"243 -7 OFFCURVE",
"322 -7 QCURVE SMOOTH",
"401 -7 OFFCURVE",
"526 61 OFFCURVE",
"597 188 OFFCURVE",
"597 274 QCURVE SMOOTH",
"597 360 OFFCURVE",
"526 488 OFFCURVE",
"401 556 OFFCURVE",
"322 556 QCURVE SMOOTH"
);
},
{
closed = 1;
nodes = (
"377 497 OFFCURVE",
"468 448 OFFCURVE",
"525 347 OFFCURVE",
"525 273 QCURVE SMOOTH",
"525 200 OFFCURVE",
"468 99 OFFCURVE",
"376 59 OFFCURVE",
"324 59 QCURVE SMOOTH",
"272 59 OFFCURVE",
"175 99 OFFCURVE",
"119 200 OFFCURVE",
"119 273 QCURVE SMOOTH",
"119 347 OFFCURVE",
"175 448 OFFCURVE",
"267 497 OFFCURVE",
"322 497 QCURVE SMOOTH"
);
}
);
width = 600;
}
);
unicode = 006F;
},
{
glyphname = ocircumflex;
lastChange = "2019-09-19 19:10:37 +0000";
layers = (
{
components = (
{
name = o;
}
);
layerId = "2F22A4FE-F550-4776-9C81-47C8675FAB27";
paths = (
{
closed = 1;
nodes = (
"192 621 OFFCURVE",
"204 633 OFFCURVE",
"212 642 CURVE SMOOTH",
"312 755 LINE",
"316 758 OFFCURVE",
"320 758 OFFCURVE",
"324 755 CURVE",
"418 642 LINE SMOOTH",
"424 634 OFFCURVE",
"438 617 OFFCURVE",
"456 632 CURVE SMOOTH",
"471 645 OFFCURVE",
"464 664 OFFCURVE",
"458 672 CURVE SMOOTH",
"381 767 LINE SMOOTH",
"374 775 OFFCURVE",
"346 807 OFFCURVE",
"320 807 CURVE SMOOTH",
"295 807 OFFCURVE",
"266 775 OFFCURVE",
"259 767 CURVE SMOOTH",
"175 671 LINE SMOOTH",
"168 663 OFFCURVE",
"161 644 OFFCURVE",
"177 632 CURVE SMOOTH"
);
},
{
closed = 0;
nodes = (
"19 49 LINE"
);
}
);
width = 600;
}
);
unicode = 00F4;
},
{
glyphname = p;
lastChange = "2019-09-14 20:15:10 +0000";
layers = (
{
layerId = "2F22A4FE-F550-4776-9C81-47C8675FAB27";
paths = (
{
closed = 1;
nodes = (
"169 -8 OFFCURVE",
"288 -8 QCURVE SMOOTH",
"396 -8 OFFCURVE",
"464 67 QCURVE SMOOTH",
"530 141 OFFCURVE",
"530 250 QCURVE SMOOTH",
"530 359 OFFCURVE",
"464 433 QCURVE SMOOTH",
"396 508 OFFCURVE",
"170 508 OFFCURVE",
"109 419 QCURVE",
"109 460 LINE SMOOTH",
"109 486 OFFCURVE",
"95 500 OFFCURVE",
"71 500 CURVE SMOOTH",
"47 500 OFFCURVE",
"34 486 OFFCURVE",
"34 460 CURVE SMOOTH",
"34 -340 LINE SMOOTH",
"34 -366 OFFCURVE",
"47 -380 OFFCURVE",
"71 -380 CURVE SMOOTH",
"95 -380 OFFCURVE",
"109 -366 OFFCURVE",
"109 -340 CURVE SMOOTH",
"109 80 LINE"
);
},
{
closed = 1;
nodes = (
"197 60 OFFCURVE",
"150 116 QCURVE SMOOTH",
"105 169 OFFCURVE",
"105 250 QCURVE SMOOTH",
"105 331 OFFCURVE",
"150 384 QCURVE SMOOTH",
"197 440 OFFCURVE",
"278 440 QCURVE SMOOTH",
"358 440 OFFCURVE",
"408 384 QCURVE SMOOTH",
"455 331 OFFCURVE",
"455 250 QCURVE SMOOTH",
"455 169 OFFCURVE",
"408 116 QCURVE SMOOTH",
"358 60 OFFCURVE",
"278 60 QCURVE SMOOTH"
);
}
);
width = 600;
}
);
unicode = 0070;
},
{
glyphname = q;
lastChange = "2019-09-13 00:12:33 +0000";
layers = (
{
anchors = (
{
name = "new anchor";
position = "{455, 171}";
}
);
layerId = "2F22A4FE-F550-4776-9C81-47C8675FAB27";
paths = (
{
closed = 1;
nodes = (
"731 -46 LINE",
"562 -235 LINE",
"521 -284 OFFCURVE",
"521 -306 OFFCURVE",
"521 -181 CURVE",
"521 -119 LINE",
"521 460 LINE SMOOTH",
"521 486 OFFCURVE",
"508 500 OFFCURVE",
"487 500 CURVE SMOOTH",
"486 500 LINE SMOOTH",
"462 500 OFFCURVE",
"455 486 OFFCURVE",
"455 460 CURVE SMOOTH",
"455 419 LINE",
"414 478 OFFCURVE",
"356 508 OFFCURVE",
"281 508 CURVE SMOOTH",
"206 508 OFFCURVE",
"145 483 OFFCURVE",
"100 433 CURVE SMOOTH",
"56 384 OFFCURVE",
"34 323 OFFCURVE",
"34 250 CURVE SMOOTH",
"34 177 OFFCURVE",
"56 116 OFFCURVE",
"100 67 CURVE SMOOTH",
"145 17 OFFCURVE",
"204 -8 OFFCURVE",
"276 -8 CURVE SMOOTH",
"355 -8 OFFCURVE",
"415 21 OFFCURVE",
"455 80 CURVE",
"455 -119 LINE SMOOTH",
"455 -173 OFFCURVE",
"452 -291 OFFCURVE",
"452 -374 CURVE SMOOTH",
"452 -400 OFFCURVE",
"485 -419 OFFCURVE",
"502 -399 CURVE",
"794 -72 LINE",
"811 -52 OFFCURVE",
"809 -46 OFFCURVE",
"786 -23 CURVE SMOOTH",
"770 -7 OFFCURVE",
"756 -18 OFFCURVE",
"742 -34 CURVE SMOOTH"
);
},
{
closed = 1;
nodes = (
"381 79 OFFCURVE",
"324 50 OFFCURVE",
"270 50 CURVE SMOOTH",
"217 50 OFFCURVE",
"173 79 OFFCURVE",
"140 116 CURVE SMOOTH",
"109 151 OFFCURVE",
"93 196 OFFCURVE",
"93 250 CURVE SMOOTH",
"93 304 OFFCURVE",
"109 349 OFFCURVE",
"140 384 CURVE SMOOTH",
"173 421 OFFCURVE",
"217 447 OFFCURVE",
"270 447 CURVE SMOOTH",
"324 447 OFFCURVE",
"381 421 OFFCURVE",
"412 384 CURVE SMOOTH",
"442 349 OFFCURVE",
"457 304 OFFCURVE",
"457 250 CURVE SMOOTH",
"457 196 OFFCURVE",
"442 151 OFFCURVE",
"412 116 CURVE SMOOTH"
);
}
);
width = 600;
}
);
unicode = 0071;
},
{
glyphname = r;
lastChange = "2019-09-16 20:31:39 +0000";
layers = (
{
layerId = "2F22A4FE-F550-4776-9C81-47C8675FAB27";
paths = (
{
closed = 1;
nodes = (
"203 460 LINE SMOOTH",
"203 490 OFFCURVE",
"190 504 OFFCURVE",
"166 504 CURVE SMOOTH",
"142 504 OFFCURVE",
"128 490 OFFCURVE",
"128 460 CURVE SMOOTH",
"128 40 LINE SMOOTH",
"128 14 OFFCURVE",
"142 0 OFFCURVE",
"166 0 CURVE SMOOTH",
"190 0 OFFCURVE",
"203 14 OFFCURVE",
"203 40 CURVE SMOOTH",
"203 284 LINE SMOOTH",
"203 323 OFFCURVE",
"253 398 QCURVE SMOOTH",
"279 437 OFFCURVE",
"351 438 QCURVE SMOOTH",
"403 439 OFFCURVE",
"435 402 QCURVE",
"440 393 OFFCURVE",
"452 377 OFFCURVE",
"478 386 CURVE SMOOTH",
"499 393 OFFCURVE",
"495 427 OFFCURVE",
"488 436 CURVE SMOOTH",
"457 476 OFFCURVE",
"394 508 OFFCURVE",
"355 508 QCURVE SMOOTH",
"253 508 OFFCURVE",
"203 434 QCURVE"
);
}
);
width = 600;
}
);
unicode = 0072;
},
{
glyphname = s;
lastChange = "2019-09-16 20:31:26 +0000";
layers = (
{
layerId = "2F22A4FE-F550-4776-9C81-47C8675FAB27";
paths = (
{
closed = 1;
nodes = (
"465 235 OFFCURVE",
"447 248 OFFCURVE",
"424 259 CURVE SMOOTH",
"401 270 OFFCURVE",
"376 277 OFFCURVE",
"350 283 CURVE SMOOTH",
"323 289 OFFCURVE",
"299 294 OFFCURVE",
"277 301 CURVE SMOOTH",
"254 308 OFFCURVE",
"235 316 OFFCURVE",
"220 327 CURVE SMOOTH",
"205 338 OFFCURVE",
"198 352 OFFCURVE",
"198 372 CURVE SMOOTH",
"198 420 OFFCURVE",
"233 444 OFFCURVE",
"303 444 CURVE SMOOTH",
"374 444 OFFCURVE",
"412 418 OFFCURVE",
"418 366 CURVE",
"419 345 OFFCURVE",
"434 329 OFFCURVE",
"452 329 CURVE SMOOTH",
"472 329 OFFCURVE",
"490 348 OFFCURVE",
"488 366 CURVE",
"483 407 OFFCURVE",
"468 439 OFFCURVE",
"441 464 CURVE SMOOTH",
"409 493 OFFCURVE",
"364 508 OFFCURVE",
"309 508 CURVE SMOOTH",
"249 508 OFFCURVE",
"204 496 OFFCURVE",
"174 471 CURVE SMOOTH",
"144 446 OFFCURVE",
"129 410 OFFCURVE",
"129 365 CURVE SMOOTH",
"129 334 OFFCURVE",
"136 310 OFFCURVE",
"151 293 CURVE SMOOTH",
"167 275 OFFCURVE",
"185 262 OFFCURVE",
"208 252 CURVE SMOOTH",
"231 242 OFFCURVE",
"255 234 OFFCURVE",
"281 229 CURVE SMOOTH",
"308 224 OFFCURVE",
"332 217 OFFCURVE",
"355 210 CURVE SMOOTH",
"378 203 OFFCURVE",
"396 194 OFFCURVE",
"411 183 CURVE SMOOTH",
"427 172 OFFCURVE",
"434 156 OFFCURVE",
"434 135 CURVE SMOOTH",
"434 104 OFFCURVE",
"419 81 OFFCURVE",
"390 70 CURVE SMOOTH",
"377 65 OFFCURVE",
"364 61 OFFCURVE",
"351 59 CURVE SMOOTH",
"337 57 OFFCURVE",
"322 56 OFFCURVE",
"307 56 CURVE SMOOTH",
"291 56 OFFCURVE",
"276 59 OFFCURVE",
"260 64 CURVE SMOOTH",
"217 77 OFFCURVE",
"193 110 OFFCURVE",
"187 157 CURVE",
"186 177 OFFCURVE",
"172 192 OFFCURVE",
"153 192 CURVE SMOOTH",
"135 192 OFFCURVE",
"119 177 OFFCURVE",
"119 157 CURVE",
"119 109 OFFCURVE",
"134 73 OFFCURVE",
"164 48 CURVE",
"205 11 OFFCURVE",
"255 -7 OFFCURVE",
"316 -8 CURVE SMOOTH",
"374 -9 OFFCURVE",
"418 4 OFFCURVE",
"452 30 CURVE SMOOTH",
"486 56 OFFCURVE",
"503 93 OFFCURVE",
"503 142 CURVE SMOOTH",
"503 173 OFFCURVE",
"495 198 OFFCURVE",
"480 216 CURVE SMOOTH"
);
}
);
width = 600;
}
);
unicode = 0073;
},
{
glyphname = t;
lastChange = "2019-08-25 01:04:39 +0000";
layers = (
{
layerId = "2F22A4FE-F550-4776-9C81-47C8675FAB27";
paths = (
{
closed = 1;
nodes = (
"282 800 OFFCURVE",
"269 786 OFFCURVE",
"269 760 CURVE SMOOTH",
"269 566 LINE",
"202 566 LINE SMOOTH",
"176 566 OFFCURVE",
"162 554 OFFCURVE",
"162 533 CURVE SMOOTH",
"162 512 OFFCURVE",
"176 500 OFFCURVE",
"202 500 CURVE SMOOTH",
"269 500 LINE",
"269 41 LINE SMOOTH",
"269 15 OFFCURVE",
"283 1 OFFCURVE",
"307 1 CURVE SMOOTH",
"331 1 OFFCURVE",
"344 15 OFFCURVE",
"344 41 CURVE SMOOTH",
"344 500 LINE",
"420 500 LINE SMOOTH",
"446 500 OFFCURVE",
"460 512 OFFCURVE",
"460 533 CURVE SMOOTH",
"460 554 OFFCURVE",
"446 566 OFFCURVE",
"420 566 CURVE SMOOTH",
"344 566 LINE",
"344 760 LINE SMOOTH",
"344 786 OFFCURVE",
"331 800 OFFCURVE",
"307 800 CURVE SMOOTH"
);
}
);
width = 600;
}
);
unicode = 0074;
},
{
glyphname = u;
lastChange = "2019-08-25 01:05:08 +0000";
layers = (
{
layerId = "2F22A4FE-F550-4776-9C81-47C8675FAB27";
paths = (
{
closed = 1;
nodes = (
"399 48 LINE SMOOTH",
"399 18 OFFCURVE",
"412 4 OFFCURVE",
"436 4 CURVE SMOOTH",
"460 4 OFFCURVE",
"474 18 OFFCURVE",
"474 48 CURVE SMOOTH",
"474 468 LINE SMOOTH",
"474 494 OFFCURVE",
"460 508 OFFCURVE",
"436 508 CURVE SMOOTH",
"412 508 OFFCURVE",
"399 494 OFFCURVE",
"399 468 CURVE SMOOTH",
"399 209 LINE SMOOTH",
"398 130 OFFCURVE",
"349 95 QCURVE SMOOTH",
"307 65 OFFCURVE",
"251 65 QCURVE SMOOTH",
"207 65 OFFCURVE",
"175 106 QCURVE SMOOTH",
"140 146 OFFCURVE",
"140 203 QCURVE SMOOTH",
"140 468 LINE SMOOTH",
"140 494 OFFCURVE",
"126 508 OFFCURVE",
"102 508 CURVE SMOOTH",
"78 508 OFFCURVE",
"65 494 OFFCURVE",
"65 468 CURVE SMOOTH",
"65 209 LINE SMOOTH",
"65 143 OFFCURVE",
"88 101 QCURVE",
"112 53 OFFCURVE",
"197 0 OFFCURVE",
"247 0 QCURVE SMOOTH",
"349 0 OFFCURVE",
"399 74 QCURVE"
);
}
);
width = 600;
}
);
unicode = 0075;
},
{
glyphname = v;
lastChange = "2019-09-15 02:34:30 +0000";
layers = (
{
layerId = "2F22A4FE-F550-4776-9C81-47C8675FAB27";
paths = (
{
closed = 1;
nodes = (
"473 505 LINE SMOOTH",
"451 508 OFFCURVE",
"438 496 OFFCURVE",
"430 470 CURVE SMOOTH",
"301 60 LINE",
"163 470 LINE SMOOTH",
"155 495 OFFCURVE",
"141 508 OFFCURVE",
"119 504 CURVE SMOOTH",
"113 503 LINE SMOOTH",
"90 499 OFFCURVE",
"84 480 OFFCURVE",
"91 460 CURVE SMOOTH",
"240 39 LINE SMOOTH",
"250 12 OFFCURVE",
"274 0 OFFCURVE",
"301 0 CURVE SMOOTH",
"329 0 OFFCURVE",
"354 12 OFFCURVE",
"363 39 CURVE SMOOTH",
"502 460 LINE SMOOTH",
"509 480 OFFCURVE",
"503 501 OFFCURVE",
"480 504 CURVE SMOOTH"
);
}
);
width = 600;
}
);
unicode = 0076;
},
{
glyphname = w;
lastChange = "2019-08-25 01:09:00 +0000";
layers = (
{
layerId = "2F22A4FE-F550-4776-9C81-47C8675FAB27";
paths = (
{
closed = 1;
nodes = (
"160 39 LINE SMOOTH",
"170 12 OFFCURVE",
"194 0 OFFCURVE",
"221 0 CURVE SMOOTH",
"249 0 OFFCURVE",
"274 12 OFFCURVE",
"283 39 CURVE SMOOTH",
"389 359 LINE",
"502 39 LINE SMOOTH",
"512 12 OFFCURVE",
"536 0 OFFCURVE",
"563 0 CURVE SMOOTH",
"591 0 OFFCURVE",
"616 12 OFFCURVE",
"625 39 CURVE SMOOTH",
"764 460 LINE SMOOTH",
"771 480 OFFCURVE",
"765 492 OFFCURVE",
"742 492 CURVE SMOOTH",
"735 492 LINE SMOOTH",
"714 492 OFFCURVE",
"696 484 OFFCURVE",
"692 470 CURVE SMOOTH",
"563 60 LINE",
"412 460 LINE SMOOTH",
"404 481 OFFCURVE",
"397 492 OFFCURVE",
"393 492 CURVE",
"387 492 LINE",
"379 492 OFFCURVE",
"372 482 OFFCURVE",
"364 460 CURVE SMOOTH",
"221 60 LINE",
"83 470 LINE SMOOTH",
"78 484 OFFCURVE",
"61 492 OFFCURVE",
"39 492 CURVE SMOOTH",
"33 492 LINE SMOOTH",
"10 492 OFFCURVE",
"4 480 OFFCURVE",
"11 460 CURVE SMOOTH"
);
}
);
width = 600;
}
);
unicode = 0077;
},
{
glyphname = x;
lastChange = "2019-08-25 01:29:16 +0000";
layers = (
{
layerId = "2F22A4FE-F550-4776-9C81-47C8675FAB27";
paths = (
{
closed = 1;
nodes = (
"429 451 LINE SMOOTH",
"449 478 OFFCURVE",
"437 500 OFFCURVE",
"404 500 CURVE SMOOTH",
"400 500 LINE SMOOTH",
"379 500 OFFCURVE",
"364 492 OFFCURVE",
"352 474 CURVE SMOOTH",
"241 311 LINE",
"129 474 LINE SMOOTH",
"117 492 OFFCURVE",
"102 500 OFFCURVE",
"81 500 CURVE SMOOTH",
"64 500 LINE SMOOTH",
"38 500 OFFCURVE",
"32 478 OFFCURVE",
"52 451 CURVE SMOOTH",
"197 258 LINE",
"40 49 LINE SMOOTH",
"20 22 OFFCURVE",
"32 0 OFFCURVE",
"65 0 CURVE SMOOTH",
"68 0 LINE SMOOTH",
"89 0 OFFCURVE",
"105 7 OFFCURVE",
"117 25 CURVE SMOOTH",
"241 204 LINE",
"364 25 LINE SMOOTH",
"376 8 OFFCURVE",
"392 0 OFFCURVE",
"413 0 CURVE SMOOTH",
"430 0 LINE SMOOTH",
"456 0 OFFCURVE",
"461 22 OFFCURVE",
"441 49 CURVE SMOOTH",
"284 258 LINE"
);
}
);
width = 600;
}
);
unicode = 0078;
},
{
glyphname = y;
lastChange = "2019-08-25 01:32:14 +0000";
layers = (
{
layerId = "2F22A4FE-F550-4776-9C81-47C8675FAB27";
paths = (
{
closed = 1;
nodes = (
"544 453 LINE SMOOTH",
"556 481 OFFCURVE",
"544 500 OFFCURVE",
"516 500 CURVE SMOOTH",
"493 500 OFFCURVE",
"478 490 OFFCURVE",
"470 469 CURVE SMOOTH",
"318 90 LINE",
"169 469 LINE SMOOTH",
"161 490 OFFCURVE",
"146 500 OFFCURVE",
"123 500 CURVE SMOOTH",
"116 500 LINE SMOOTH",
"92 500 OFFCURVE",
"82 481 OFFCURVE",
"93 453 CURVE SMOOTH",
"278 7 LINE",
"71 -478 LINE SMOOTH",
"63 -498 OFFCURVE",
"65 -515 OFFCURVE",
"77 -533 CURVE SMOOTH",
"84 -543 LINE SMOOTH",
"98 -564 OFFCURVE",
"117 -556 OFFCURVE",
"130 -526 CURVE SMOOTH"
);
}
);
width = 600;
}
);
unicode = 0079;
},
{
glyphname = z;
lastChange = "2019-08-25 01:33:24 +0000";
layers = (
{
layerId = "2F22A4FE-F550-4776-9C81-47C8675FAB27";
paths = (
{
closed = 1;
nodes = (
"427 408 LINE SMOOTH",
"440 424 OFFCURVE",
"445 438 OFFCURVE",
"445 458 CURVE SMOOTH",
"445 465 LINE SMOOTH",
"445 487 OFFCURVE",
"431 500 OFFCURVE",
"405 500 CURVE SMOOTH",
"95 500 LINE SMOOTH",
"69 500 OFFCURVE",
"55 488 OFFCURVE",
"55 466 CURVE SMOOTH",
"55 444 OFFCURVE",
"69 431 OFFCURVE",
"95 431 CURVE SMOOTH",
"350 431 LINE",
"69 93 LINE SMOOTH",
"56 77 OFFCURVE",
"51 63 OFFCURVE",
"51 43 CURVE SMOOTH",
"51 36 LINE SMOOTH",
"51 13 OFFCURVE",
"65 0 OFFCURVE",
"91 0 CURVE SMOOTH",
"405 0 LINE SMOOTH",
"431 0 OFFCURVE",
"445 13 OFFCURVE",
"445 35 CURVE SMOOTH",
"445 57 OFFCURVE",
"431 70 OFFCURVE",
"405 70 CURVE SMOOTH",
"145 70 LINE"
);
}
);
width = 600;
}
);
unicode = 007A;
},
{
glyphname = s.001;
lastChange = "2019-09-19 19:14:40 +0000";
layers = (
{
layerId = "2F22A4FE-F550-4776-9C81-47C8675FAB27";
paths = (
{
closed = 1;
nodes = (
"447 234 OFFCURVE",
"430 248 OFFCURVE",
"410 259 CURVE",
"388 269 OFFCURVE",
"365 277 OFFCURVE",
"341 283 CURVE",
"317 288 OFFCURVE",
"294 293 OFFCURVE",
"274 300 CURVE SMOOTH",
"253 307 OFFCURVE",
"236 315 OFFCURVE",
"222 326 CURVE",
"208 336 OFFCURVE",
"201 351 OFFCURVE",
"201 370 CURVE SMOOTH",
"201 418 OFFCURVE",
"233 442 OFFCURVE",
"298 442 CURVE SMOOTH",
"363 442 OFFCURVE",
"398 416 OFFCURVE",
"404 365 CURVE",
"404 348 OFFCURVE",
"418 334 OFFCURVE",
"435 334 CURVE SMOOTH",
"453 334 OFFCURVE",
"467 348 OFFCURVE",
"467 365 CURVE",
"468 365 LINE",
"464 405 OFFCURVE",
"450 437 OFFCURVE",
"425 461 CURVE SMOOTH",
"395 489 OFFCURVE",
"355 505 OFFCURVE",
"303 505 CURVE SMOOTH",
"248 505 OFFCURVE",
"207 494 OFFCURVE",
"179 468 CURVE SMOOTH",
"152 443 OFFCURVE",
"138 408 OFFCURVE",
"138 364 CURVE SMOOTH",
"138 333 OFFCURVE",
"145 309 OFFCURVE",
"159 292 CURVE SMOOTH",
"172 276 OFFCURVE",
"190 262 OFFCURVE",
"211 252 CURVE SMOOTH",
"231 242 OFFCURVE",
"253 234 OFFCURVE",
"278 229 CURVE",
"302 223 OFFCURVE",
"325 217 OFFCURVE",
"346 211 CURVE",
"367 204 OFFCURVE",
"384 195 OFFCURVE",
"398 184 CURVE SMOOTH",
"412 173 OFFCURVE",
"419 157 OFFCURVE",
"419 136 CURVE SMOOTH",
"419 106 OFFCURVE",
"405 83 OFFCURVE",
"378 72 CURVE SMOOTH",
"366 67 OFFCURVE",
"355 63 OFFCURVE",
"342 61 CURVE SMOOTH",
"329 59 OFFCURVE",
"316 58 OFFCURVE",
"301 58 CURVE SMOOTH",
"288 58 OFFCURVE",
"273 61 OFFCURVE",
"259 66 CURVE SMOOTH",
"219 80 OFFCURVE",
"197 112 OFFCURVE",
"191 158 CURVE",
"190 178 OFFCURVE",
"178 193 OFFCURVE",
"161 193 CURVE SMOOTH",
"143 193 OFFCURVE",
"131 178 OFFCURVE",
"130 158 CURVE",
"129 158 LINE",
"129 111 OFFCURVE",
"143 75 OFFCURVE",
"170 51 CURVE",
"208 14 OFFCURVE",
"254 -4 OFFCURVE",
"310 -5 CURVE SMOOTH",
"363 -6 OFFCURVE",
"404 7 OFFCURVE",
"435 33 CURVE SMOOTH",
"466 59 OFFCURVE",
"482 95 OFFCURVE",
"482 143 CURVE SMOOTH",
"482 174 OFFCURVE",
"475 199 OFFCURVE",
"461 216 CURVE SMOOTH"
);
}
);
width = 600;
}
);
},
{
glyphname = Delta;
lastChange = "2019-09-19 20:54:13 +0000";
layers = (
{
layerId = "2F22A4FE-F550-4776-9C81-47C8675FAB27";
paths = (
{
closed = 1;
nodes = (
"541 -5 LINE SMOOTH",
"583 -5 OFFCURVE",
"607 26 OFFCURVE",
"595 58 CURVE SMOOTH",
"368 670 LINE SMOOTH",
"335 758 OFFCURVE",
"261 760 OFFCURVE",
"228 670 CURVE SMOOTH",
"4 58 LINE SMOOTH",
"-8 26 OFFCURVE",
"17 -5 OFFCURVE",
"58 -5 CURVE SMOOTH"
);
},
{
closed = 1;
nodes = (
"108 60 OFFCURVE",
"73 87 OFFCURVE",
"84 118 CURVE SMOOTH",
"255 599 LINE SMOOTH",
"279 665 OFFCURVE",
"323 665 OFFCURVE",
"346 599 CURVE SMOOTH",
"513 118 LINE SMOOTH",
"524 87 OFFCURVE",
"490 60 OFFCURVE",
"451 60 CURVE SMOOTH",
"147 60 LINE SMOOTH"
);
}
);
width = 600;
}
);
unicode = 0394;
},
{
glyphname = Omega;
lastChange = "2019-09-19 20:53:24 +0000";
layers = (
{
layerId = "2F22A4FE-F550-4776-9C81-47C8675FAB27";
paths = (
{
closed = 1;
nodes = (
"156 -1 LINE",
"207 0 LINE SMOOTH",
"242 1 OFFCURVE",
"273 95 OFFCURVE",
"249 123 CURVE SMOOTH",
"142 250 LINE SMOOTH",
"22 393 OFFCURVE",
"177 537 QCURVE",
"229 597 OFFCURVE",
"301 597 QCURVE SMOOTH",
"391 597 OFFCURVE",
"441 535 QCURVE",
"586 367 OFFCURVE",
"464 248 QCURVE SMOOTH",
"340 128 LINE SMOOTH",
"313 102 OFFCURVE",
"346 0 OFFCURVE",
"383 0 CURVE SMOOTH",
"533 0 LINE SMOOTH",
"567 0 OFFCURVE",
"566 55 OFFCURVE",
"526 55 CURVE SMOOTH",
"450 55 LINE SMOOTH",
"412 55 OFFCURVE",
"356 74 OFFCURVE",
"407 124 CURVE SMOOTH",
"529 245 LINE SMOOTH",
"638 353 OFFCURVE",
"440 671 OFFCURVE",
"301 670 QCURVE SMOOTH",
"186 669 OFFCURVE",
"-33 364 OFFCURVE",
"67 249 QCURVE SMOOTH",
"182 117 LINE SMOOTH",
"227 66 OFFCURVE",
"179 55 OFFCURVE",
"98 55 CURVE SMOOTH",
"64 55 LINE SMOOTH",
"25 55 OFFCURVE",
"27 0 OFFCURVE",
"56 0 CURVE SMOOTH"
);
}
);
width = 600;
}
);
unicode = 03A9;
},
{
glyphname = pi;
lastChange = "2019-09-19 20:50:32 +0000";
layers = (
{
layerId = "2F22A4FE-F550-4776-9C81-47C8675FAB27";
paths = (
{
closed = 1;
nodes = (
"550 490 OFFCURVE",
"537 512 OFFCURVE",
"511 512 CURVE SMOOTH",
"54 512 LINE SMOOTH",
"28 512 OFFCURVE",
"13 490 OFFCURVE",
"13 474 CURVE SMOOTH",
"13 457 OFFCURVE",
"28 429 OFFCURVE",
"54 429 CURVE SMOOTH",
"145 429 LINE",
"145 29 LINE SMOOTH",
"145 10 OFFCURVE",
"159 0 OFFCURVE",
"183 0 CURVE SMOOTH",
"207 0 OFFCURVE",
"220 10 OFFCURVE",
"220 29 CURVE SMOOTH",
"220 429 LINE",
"355 429 LINE",
"360 84 LINE",
"364 0 OFFCURVE",
"465 -26 OFFCURVE",
"534 35 CURVE",
"569 66 OFFCURVE",
"579 81 OFFCURVE",
"570 99 CURVE",
"563 112 OFFCURVE",
"550 119 OFFCURVE",
"534 114 CURVE",
"502 104 OFFCURVE",
"477 71 OFFCURVE",
"445 81 CURVE",
"423 90 OFFCURVE",
"434 314 OFFCURVE",
"432 429 CURVE",
"511 429 LINE SMOOTH",
"537 429 OFFCURVE",
"550 452 OFFCURVE",
"550 474 CURVE SMOOTH"
);
}
);
width = 600;
}
);
unicode = 03C0;
},
{
glyphname = zero;
lastChange = "2019-08-25 01:35:38 +0000";
layers = (
{
layerId = "2F22A4FE-F550-4776-9C81-47C8675FAB27";
paths = (
{
closed = 1;
nodes = (
"43 -8 OFFCURVE",
"285 -8 QCURVE SMOOTH",
"528 -8 OFFCURVE",
"528 346 QCURVE SMOOTH",
"528 502 OFFCURVE",
"478 589 QCURVE SMOOTH",
"417 698 OFFCURVE",
"285 700 QCURVE SMOOTH",
"43 700 OFFCURVE",
"43 346 QCURVE SMOOTH"
);
},
{
closed = 1;
nodes = (
"199 68 OFFCURVE",
"121 206 OFFCURVE",
"121 346 QCURVE SMOOTH",
"121 486 OFFCURVE",
"199 624 OFFCURVE",
"285 624 QCURVE SMOOTH",
"372 624 OFFCURVE",
"449 486 OFFCURVE",
"449 346 QCURVE SMOOTH",
"449 298 OFFCURVE",
"443 249 QCURVE SMOOTH",
"423 71 OFFCURVE",
"285 68 QCURVE SMOOTH"
);
}
);
width = 600;
}
);
unicode = 0030;
},
{
glyphname = one;
lastChange = "2019-08-25 01:35:47 +0000";
layers = (
{
layerId = "2F22A4FE-F550-4776-9C81-47C8675FAB27";
paths = (
{
closed = 1;
nodes = (
"256 40 LINE SMOOTH",
"256 14 OFFCURVE",
"270 0 OFFCURVE",
"296 0 CURVE SMOOTH",
"305 0 LINE SMOOTH",
"331 0 OFFCURVE",
"345 14 OFFCURVE",
"345 40 CURVE SMOOTH",
"345 660 LINE SMOOTH",
"345 686 OFFCURVE",
"331 700 OFFCURVE",
"305 700 CURVE SMOOTH",
"296 700 LINE SMOOTH",
"270 700 OFFCURVE",
"256 686 OFFCURVE",
"256 660 CURVE SMOOTH"
);
}
);
width = 600;
}
);
unicode = 0031;
},
{
glyphname = two;
lastChange = "2019-08-25 02:09:19 +0000";
layers = (
{
layerId = "2F22A4FE-F550-4776-9C81-47C8675FAB27";
paths = (
{
closed = 1;
nodes = (
"484 0 LINE SMOOTH",
"485 0 OFFCURVE",
"503 -3 OFFCURVE",
"515 9 CURVE",
"527 23 OFFCURVE",
"527 27 OFFCURVE",
"527 39 CURVE SMOOTH",
"527 51 OFFCURVE",
"523 54 OFFCURVE",
"515 63 CURVE",
"506 71 OFFCURVE",
"496 75 OFFCURVE",
"484 75 CURVE SMOOTH",
"172 75 LINE",
"349 232 OFFCURVE",
"453 334 OFFCURVE",
"485 379 CURVE SMOOTH",
"517 424 OFFCURVE",
"533 466 OFFCURVE",
"533 505 CURVE SMOOTH",
"533 545 OFFCURVE",
"523 580 OFFCURVE",
"503 611 CURVE SMOOTH",
"482 642 OFFCURVE",
"458 662 OFFCURVE",
"430 673 CURVE",
"401 683 OFFCURVE",
"361 687 OFFCURVE",
"309 684 CURVE SMOOTH",
"257 681 OFFCURVE",
"157 644 OFFCURVE",
"129 628 CURVE",
"97 603 OFFCURVE",
"101 593 OFFCURVE",
"109 578 CURVE SMOOTH",
"117 564 OFFCURVE",
"138 560 OFFCURVE",
"159 569 CURVE SMOOTH",
"212 592 OFFCURVE",
"265 608 OFFCURVE",
"315 614 CURVE SMOOTH",
"365 619 OFFCURVE",
"403 612 OFFCURVE",
"428 592 CURVE SMOOTH",
"453 571 OFFCURVE",
"465 542 OFFCURVE",
"465 504 CURVE SMOOTH",
"465 480 OFFCURVE",
"457 458 OFFCURVE",
"441 438 CURVE SMOOTH",
"425 417 OFFCURVE",
"359 353 OFFCURVE",
"244 246 CURVE SMOOTH",
"129 138 OFFCURVE",
"69 73 OFFCURVE",
"65 52 CURVE SMOOTH",
"62 37 OFFCURVE",
"67 24 OFFCURVE",
"78 15 CURVE",
"89 5 OFFCURVE",
"103 0 OFFCURVE",
"118 0 CURVE SMOOTH"
);
}
);
width = 600;
}
);
unicode = 0032;
},
{
glyphname = three;
lastChange = "2019-08-25 02:05:27 +0000";
layers = (
{
layerId = "2F22A4FE-F550-4776-9C81-47C8675FAB27";
paths = (
{
closed = 1;
nodes = (
"408 -10 OFFCURVE",
"543 91 OFFCURVE",
"543 183 QCURVE SMOOTH",
"543 265 OFFCURVE",
"464 348 OFFCURVE",
"407 361 QCURVE",
"459 380 OFFCURVE",
"518 459 OFFCURVE",
"518 528 QCURVE SMOOTH",
"518 614 OFFCURVE",
"402 708 OFFCURVE",
"287 708 QCURVE SMOOTH",
"183 709 OFFCURVE",
"89 657 QCURVE SMOOTH",
"69 646 OFFCURVE",
"69 623 QCURVE SMOOTH",
"69 614 OFFCURVE",
"85 596 OFFCURVE",
"106 596 QCURVE SMOOTH",
"114 596 OFFCURVE",
"124 600 QCURVE",
"195 633 OFFCURVE",
"279 633 QCURVE SMOOTH",
"367 633 OFFCURVE",
"447 567 OFFCURVE",
"447 519 QCURVE SMOOTH",
"447 459 OFFCURVE",
"331 388 OFFCURVE",
"231 388 QCURVE SMOOTH",
"225 388 LINE SMOOTH",
"208 388 OFFCURVE",
"183 370 OFFCURVE",
"183 356 QCURVE SMOOTH",
"183 339 OFFCURVE",
"208 314 OFFCURVE",
"225 314 QCURVE SMOOTH",
"241 314 LINE SMOOTH",
"462 314 OFFCURVE",
"462 188 QCURVE SMOOTH",
"462 128 OFFCURVE",
"355 67 OFFCURVE",
"277 67 QCURVE SMOOTH",
"190 67 OFFCURVE",
"118 96 QCURVE SMOOTH",
"108 100 OFFCURVE",
"99 100 QCURVE SMOOTH",
"82 100 OFFCURVE",
"61 84 OFFCURVE",
"59 68 QCURVE SMOOTH",
"58 58 OFFCURVE",
"73 35 OFFCURVE",
"85 30 QCURVE SMOOTH",
"183 -10 OFFCURVE",
"294 -10 QCURVE SMOOTH"
);
}
);
width = 600;
}
);
unicode = 0033;
},
{
glyphname = four;
lastChange = "2019-08-25 02:02:38 +0000";
layers = (
{
layerId = "2F22A4FE-F550-4776-9C81-47C8675FAB27";
paths = (
{
closed = 1;
nodes = (
"480 351 LINE",
"480 624 LINE SMOOTH",
"480 637 OFFCURVE",
"476 648 OFFCURVE",
"467 657 CURVE SMOOTH",
"458 666 OFFCURVE",
"457 670 OFFCURVE",
"454 670 CURVE SMOOTH",
"441 670 OFFCURVE",
"431 666 OFFCURVE",
"422 657 CURVE SMOOTH",
"413 648 OFFCURVE",
"409 637 OFFCURVE",
"409 624 CURVE SMOOTH",
"409 351 LINE",
"177 351 LINE",
"177 624 LINE SMOOTH",
"177 637 OFFCURVE",
"173 648 OFFCURVE",
"164 657 CURVE SMOOTH",
"155 666 OFFCURVE",
"154 670 OFFCURVE",
"141 670 CURVE SMOOTH",
"128 670 OFFCURVE",
"128 666 OFFCURVE",
"119 657 CURVE SMOOTH",
"110 648 OFFCURVE",
"106 637 OFFCURVE",
"106 624 CURVE SMOOTH",
"106 321 LINE SMOOTH",
"106 318 OFFCURVE",
"110 308 OFFCURVE",
"119 299 CURVE SMOOTH",
"128 290 OFFCURVE",
"138 286 OFFCURVE",
"141 286 CURVE SMOOTH",
"409 286 LINE",
"409 40 LINE SMOOTH",
"409 27 OFFCURVE",
"413 17 OFFCURVE",
"422 8 CURVE SMOOTH",
"431 -1 OFFCURVE",
"441 -5 OFFCURVE",
"454 -5 CURVE SMOOTH",
"457 -5 OFFCURVE",
"458 -1 OFFCURVE",
"467 8 CURVE SMOOTH",
"476 17 OFFCURVE",
"480 27 OFFCURVE",
"480 40 CURVE SMOOTH",
"480 286 LINE",
"555 286 LINE SMOOTH",
"578 286 OFFCURVE",
"596 304 OFFCURVE",
"596 319 CURVE SMOOTH",
"596 332 OFFCURVE",
"578 351 OFFCURVE",
"555 351 CURVE SMOOTH"
);
}
);
width = 600;
}
);
unicode = 0034;
},
{
glyphname = five;
lastChange = "2019-09-19 20:13:16 +0000";
layers = (
{
layerId = "2F22A4FE-F550-4776-9C81-47C8675FAB27";
paths = (
{
closed = 1;
nodes = (
"384 -6 OFFCURVE",
"508 120 OFFCURVE",
"508 212 QCURVE SMOOTH",
"505 306 OFFCURVE",
"444 372 QCURVE SMOOTH",
"418 400 OFFCURVE",
"345 439 OFFCURVE",
"202 441 OFFCURVE",
"151 398 QCURVE",
"150 600 LINE",
"429 600 LINE SMOOTH",
"455 600 OFFCURVE",
"469 613 OFFCURVE",
"469 626 CURVE SMOOTH",
"469 649 OFFCURVE",
"455 662 OFFCURVE",
"429 662 CURVE SMOOTH",
"120 662 LINE SMOOTH",
"94 662 OFFCURVE",
"80 662 OFFCURVE",
"80 622 CURVE SMOOTH",
"80 346 LINE SMOOTH",
"80 319 OFFCURVE",
"78 285 OFFCURVE",
"104 286 CURVE",
"124 286 OFFCURVE",
"124 287 OFFCURVE",
"139 303 CURVE SMOOTH",
"184 350 OFFCURVE",
"258 378 OFFCURVE",
"317 365 QCURVE SMOOTH",
"370 355 OFFCURVE",
"398 310 QCURVE SMOOTH",
"430 259 OFFCURVE",
"428 206 QCURVE SMOOTH",
"425 136 OFFCURVE",
"379 103 QCURVE SMOOTH",
"355 84 OFFCURVE",
"308 64 OFFCURVE",
"249 58 OFFCURVE",
"226 69 QCURVE SMOOTH",
"168 97 OFFCURVE",
"142 150 QCURVE",
"120 189 OFFCURVE",
"72 150 OFFCURVE",
"87 113 CURVE SMOOTH",
"104 71 OFFCURVE",
"157 31 QCURVE SMOOTH",
"211 -10 OFFCURVE",
"290 -8 QCURVE SMOOTH"
);
}
);
width = 600;
}
);
unicode = 0035;
},
{
glyphname = six;
lastChange = "2019-09-19 19:19:00 +0000";
layers = (
{
layerId = "2F22A4FE-F550-4776-9C81-47C8675FAB27";
paths = (
{
closed = 1;
nodes = (
"383 408 OFFCURVE",
"325 429 OFFCURVE",
"262 429 CURVE SMOOTH",
"228 429 OFFCURVE",
"208 423 OFFCURVE",
"176 411 CURVE",
"207 455 LINE SMOOTH",
"251 517 OFFCURVE",
"255 524 OFFCURVE",
"313 597 CURVE SMOOTH",
"349 642 OFFCURVE",
"357 671 OFFCURVE",
"333 691 CURVE",
"298 712 OFFCURVE",
"286 685 OFFCURVE",
"249 642 CURVE SMOOTH",
"198 583 OFFCURVE",
"142 503 OFFCURVE",
"105 437 CURVE SMOOTH",
"60 356 LINE",
"24 285 OFFCURVE",
"24 252 OFFCURVE",
"24 212 CURVE SMOOTH",
"24 151 OFFCURVE",
"44 101 OFFCURVE",
"83 60 CURVE SMOOTH",
"123 17 OFFCURVE",
"195 -3 OFFCURVE",
"258 -3 CURVE SMOOTH",
"321 -3 OFFCURVE",
"383 18 OFFCURVE",
"423 60 CURVE SMOOTH",
"462 101 OFFCURVE",
"482 152 OFFCURVE",
"482 213 CURVE SMOOTH",
"482 274 OFFCURVE",
"462 325 OFFCURVE",
"423 366 CURVE SMOOTH"
);
},
{
closed = 1;
nodes = (
"346 77 OFFCURVE",
"304 58 OFFCURVE",
"258 58 CURVE SMOOTH",
"212 58 OFFCURVE",
"176 73 OFFCURVE",
"148 103 CURVE SMOOTH",
"121 132 OFFCURVE",
"106 169 OFFCURVE",
"103 213 CURVE",
"106 258 OFFCURVE",
"121 295 OFFCURVE",
"148 323 CURVE SMOOTH",
"177 353 OFFCURVE",
"212 369 OFFCURVE",
"258 369 CURVE SMOOTH",
"304 369 OFFCURVE",
"341 354 OFFCURVE",
"369 323 CURVE SMOOTH",
"395 294 OFFCURVE",
"409 258 OFFCURVE",
"409 213 CURVE SMOOTH",
"409 169 OFFCURVE",
"395 132 OFFCURVE",
"369 103 CURVE SMOOTH"
);
}
);
width = 600;
}
);
unicode = 0036;
},
{
glyphname = seven;
lastChange = "2019-08-25 03:00:08 +0000";
layers = (
{
layerId = "2F22A4FE-F550-4776-9C81-47C8675FAB27";
paths = (
{
closed = 1;
nodes = (
"87 702 LINE SMOOTH",
"61 702 OFFCURVE",
"47 689 OFFCURVE",
"47 666 CURVE SMOOTH",
"47 643 OFFCURVE",
"61 630 OFFCURVE",
"87 630 CURVE SMOOTH",
"429 630 LINE",
"164 47 LINE SMOOTH",
"152 20 OFFCURVE",
"165 0 OFFCURVE",
"195 0 CURVE SMOOTH",
"197 0 LINE SMOOTH",
"219 0 OFFCURVE",
"234 10 OFFCURVE",
"243 30 CURVE SMOOTH",
"496 605 LINE SMOOTH",
"503 622 OFFCURVE",
"506 637 OFFCURVE",
"506 655 CURVE SMOOTH",
"506 666 LINE SMOOTH",
"506 689 OFFCURVE",
"492 702 OFFCURVE",
"466 702 CURVE SMOOTH"
);
}
);
width = 600;
}
);
unicode = 0037;
},
{
glyphname = eight;
lastChange = "2019-08-27 01:15:25 +0000";
layers = (
{
layerId = "2F22A4FE-F550-4776-9C81-47C8675FAB27";
paths = (
{
closed = 1;
nodes = (
"448 3 OFFCURVE",
"548 129 OFFCURVE",
"512 215 CURVE SMOOTH",
"480 292 OFFCURVE",
"403 342 OFFCURVE",
"284 410 CURVE",
"384 496 LINE",
"407 516 OFFCURVE",
"460 557 OFFCURVE",
"503 594 CURVE SMOOTH",
"521 609 OFFCURVE",
"519 625 OFFCURVE",
"502 641 CURVE SMOOTH",
"486 657 OFFCURVE",
"464 655 OFFCURVE",
"442 636 CURVE SMOOTH",
"428 624 LINE",
"393 649 OFFCURVE",
"376 697 OFFCURVE",
"279 705 CURVE SMOOTH",
"162 714 OFFCURVE",
"80 634 OFFCURVE",
"77 551 CURVE SMOOTH",
"76 518 OFFCURVE",
"77 492 OFFCURVE",
"110 460 CURVE SMOOTH",
"143 428 OFFCURVE",
"155 421 OFFCURVE",
"176 405 CURVE",
"139 375 OFFCURVE",
"117 354 OFFCURVE",
"92 320 CURVE SMOOTH",
"67 287 OFFCURVE",
"51 248 OFFCURVE",
"55 207 CURVE SMOOTH",
"67 91 OFFCURVE",
"160 3 OFFCURVE",
"295 3 CURVE SMOOTH"
);
},
{
closed = 1;
nodes = (
"203 80 OFFCURVE",
"145 140 OFFCURVE",
"134 187 CURVE SMOOTH",
"124 230 OFFCURVE",
"127 253 OFFCURVE",
"160 294 CURVE SMOOTH",
"188 328 OFFCURVE",
"241 372 OFFCURVE",
"241 366 CURVE",
"298 329 OFFCURVE",
"401 268 OFFCURVE",
"424 219 CURVE SMOOTH",
"458 146 OFFCURVE",
"415 72 OFFCURVE",
"295 77 CURVE SMOOTH"
);
},
{
closed = 1;
nodes = (
"187 483 OFFCURVE",
"156 492 OFFCURVE",
"156 547 CURVE SMOOTH",
"156 609 OFFCURVE",
"201 649 OFFCURVE",
"253 649 CURVE",
"296 649 OFFCURVE",
"360 592 OFFCURVE",
"372 580 CURVE SMOOTH",
"373 579 OFFCURVE",
"345 556 OFFCURVE",
"309 525 CURVE SMOOTH",
"237 464 OFFCURVE",
"226 453 OFFCURVE",
"225 455 CURVE"
);
}
);
width = 600;
}
);
unicode = 0038;
},
{
glyphname = nine;
lastChange = "2019-09-19 20:15:09 +0000";
layers = (
{
layerId = "2F22A4FE-F550-4776-9C81-47C8675FAB27";
paths = (
{
closed = 1;
nodes = (
"276 314 OFFCURVE",
"324 315 OFFCURVE",
"375 336 CURVE SMOOTH",
"401 347 OFFCURVE",
"415 354 OFFCURVE",
"433 373 CURVE",
"433 151 OFFCURVE",
"434 89 OFFCURVE",
"434 31 CURVE SMOOTH",
"434 -11 OFFCURVE",
"506 -9 OFFCURVE",
"506 30 CURVE",
"506 91 OFFCURVE",
"506 213 OFFCURVE",
"500 449 CURVE",
"499 539 OFFCURVE",
"496 548 OFFCURVE",
"483 580 CURVE SMOOTH",
"463 629 OFFCURVE",
"418 662 OFFCURVE",
"374 681 CURVE SMOOTH",
"328 701 OFFCURVE",
"279 700 OFFCURVE",
"228 680 CURVE SMOOTH",
"179 657 OFFCURVE",
"144 624 OFFCURVE",
"128 576 CURVE SMOOTH",
"112 531 OFFCURVE",
"112 483 OFFCURVE",
"132 435 CURVE SMOOTH",
"152 388 OFFCURVE",
"185 353 OFFCURVE",
"232 334 CURVE SMOOTH"
);
},
{
closed = 1;
nodes = (
"205 578 OFFCURVE",
"225 597 OFFCURVE",
"256 611 CURVE SMOOTH",
"286 625 OFFCURVE",
"316 625 OFFCURVE",
"342 612 CURVE SMOOTH",
"368 599 OFFCURVE",
"388 580 OFFCURVE",
"406 552 CURVE",
"416 521 OFFCURVE",
"417 493 OFFCURVE",
"406 467 CURVE SMOOTH",
"394 441 OFFCURVE",
"375 419 OFFCURVE",
"345 406 CURVE SMOOTH",
"314 393 OFFCURVE",
"284 395 OFFCURVE",
"257 406 CURVE SMOOTH",
"229 417 OFFCURVE",
"212 438 OFFCURVE",
"198 467 CURVE SMOOTH",
"185 494 OFFCURVE",
"183 525 OFFCURVE",
"194 552 CURVE SMOOTH"
);
}
);
width = 600;
}
);
unicode = 0039;
},
{
glyphname = fraction;
lastChange = "2019-09-19 19:56:09 +0000";
layers = (
{
layerId = "2F22A4FE-F550-4776-9C81-47C8675FAB27";
paths = (
{
closed = 1;
nodes = (
"106 87 LINE SMOOTH",
"87 54 OFFCURVE",
"86 29 OFFCURVE",
"102 19 CURVE SMOOTH",
"116 10 OFFCURVE",
"143 26 OFFCURVE",
"163 61 CURVE SMOOTH",
"500 644 LINE SMOOTH",
"521 681 OFFCURVE",
"521 701 OFFCURVE",
"504 712 CURVE SMOOTH",
"486 723 OFFCURVE",
"465 708 OFFCURVE",
"445 674 CURVE SMOOTH"
);
}
);
width = 600;
}
);
unicode = 2044;
},
{
glyphname = period;
lastChange = "2019-08-27 01:23:29 +0000";
layers = (
{
layerId = "2F22A4FE-F550-4776-9C81-47C8675FAB27";
paths = (
{
closed = 1;
nodes = (
"330 -5 OFFCURVE",
"357 21 OFFCURVE",
"357 54 CURVE SMOOTH",
"357 87 OFFCURVE",
"330 112 OFFCURVE",
"298 112 CURVE SMOOTH",
"265 112 OFFCURVE",
"239 87 OFFCURVE",
"239 54 CURVE SMOOTH",
"239 21 OFFCURVE",
"265 -5 OFFCURVE",
"298 -5 CURVE SMOOTH"
);
}
);
width = 600;
}
);
unicode = 002E;
},
{
glyphname = comma;
lastChange = "2019-08-27 01:23:08 +0000";
layers = (
{
layerId = "2F22A4FE-F550-4776-9C81-47C8675FAB27";
paths = (
{
closed = 1;
nodes = (
"357 57 LINE",
"357 90 OFFCURVE",
"330 115 OFFCURVE",
"298 115 CURVE SMOOTH",
"265 115 OFFCURVE",
"239 90 OFFCURVE",
"239 57 CURVE SMOOTH",
"239 24 OFFCURVE",
"265 -2 OFFCURVE",
"298 -2 CURVE SMOOTH",
"306 -2 OFFCURVE",
"312 0 OFFCURVE",
"325 8 CURVE",
"319 -8 OFFCURVE",
"289 -36 OFFCURVE",
"279 -50 CURVE SMOOTH",
"270 -62 OFFCURVE",
"261 -80 OFFCURVE",
"276 -84 CURVE SMOOTH",
"292 -88 OFFCURVE",
"325 -39 OFFCURVE",
"339 -15 CURVE SMOOTH",
"352 8 OFFCURVE",
"352 8 OFFCURVE",
"357 49 CURVE"
);
}
);
width = 600;
}
);
unicode = 002C;
},
{
glyphname = colon;
lastChange = "2019-09-15 02:31:16 +0000";
layers = (
{
layerId = "2F22A4FE-F550-4776-9C81-47C8675FAB27";
paths = (
{
closed = 1;
nodes = (
"330 -5 OFFCURVE",
"357 21 OFFCURVE",
"357 54 CURVE SMOOTH",
"357 87 OFFCURVE",
"330 112 OFFCURVE",
"298 112 CURVE SMOOTH",
"265 112 OFFCURVE",
"239 87 OFFCURVE",
"239 54 CURVE SMOOTH",
"239 21 OFFCURVE",
"265 -5 OFFCURVE",
"298 -5 CURVE SMOOTH"
);
},
{
closed = 1;
nodes = (
"330 379 OFFCURVE",
"357 405 OFFCURVE",
"357 438 CURVE SMOOTH",
"357 471 OFFCURVE",
"330 496 OFFCURVE",
"298 496 CURVE SMOOTH",
"265 496 OFFCURVE",
"239 471 OFFCURVE",
"239 438 CURVE SMOOTH",
"239 405 OFFCURVE",
"265 379 OFFCURVE",
"298 379 CURVE SMOOTH"
);
}
);
width = 600;
}
);
unicode = 003A;
},
{
glyphname = semicolon;
lastChange = "2019-09-15 02:31:42 +0000";
layers = (
{
layerId = "2F22A4FE-F550-4776-9C81-47C8675FAB27";
paths = (
{
closed = 1;
nodes = (
"330 380 OFFCURVE",
"357 406 OFFCURVE",
"357 439 CURVE SMOOTH",
"357 472 OFFCURVE",
"330 497 OFFCURVE",
"298 497 CURVE SMOOTH",
"265 497 OFFCURVE",
"239 472 OFFCURVE",
"239 439 CURVE SMOOTH",
"239 406 OFFCURVE",
"265 380 OFFCURVE",
"298 380 CURVE SMOOTH"
);
},
{
closed = 1;
nodes = (
"357 57 LINE",
"357 90 OFFCURVE",
"330 115 OFFCURVE",
"298 115 CURVE SMOOTH",
"265 115 OFFCURVE",
"239 90 OFFCURVE",
"239 57 CURVE SMOOTH",
"239 24 OFFCURVE",
"265 -2 OFFCURVE",
"298 -2 CURVE SMOOTH",
"306 -2 OFFCURVE",
"312 0 OFFCURVE",
"325 8 CURVE",
"319 -8 OFFCURVE",
"289 -36 OFFCURVE",
"279 -50 CURVE SMOOTH",
"270 -62 OFFCURVE",
"261 -80 OFFCURVE",
"276 -84 CURVE SMOOTH",
"292 -88 OFFCURVE",
"325 -39 OFFCURVE",
"339 -15 CURVE SMOOTH",
"352 8 OFFCURVE",
"352 8 OFFCURVE",
"357 49 CURVE"
);
}
);
width = 600;
}
);
unicode = 003B;
},
{
glyphname = exclam;
lastChange = "2019-08-27 01:51:50 +0000";
layers = (
{
layerId = "2F22A4FE-F550-4776-9C81-47C8675FAB27";
paths = (
{
closed = 1;
nodes = (
"309 183 OFFCURVE",
"335 199 OFFCURVE",
"335 224 CURVE SMOOTH",
"335 621 LINE SMOOTH",
"335 648 OFFCURVE",
"322 662 OFFCURVE",
"296 662 CURVE SMOOTH",
"285 662 LINE SMOOTH",
"259 662 OFFCURVE",
"246 648 OFFCURVE",
"246 621 CURVE SMOOTH",
"246 224 LINE SMOOTH",
"246 199 OFFCURVE",
"273 183 OFFCURVE",
"291 183 CURVE SMOOTH"
);
},
{
closed = 1;
nodes = (
"320 2 OFFCURVE",
"343 25 OFFCURVE",
"343 54 CURVE SMOOTH",
"343 83 OFFCURVE",
"320 106 OFFCURVE",
"292 106 CURVE SMOOTH",
"263 106 OFFCURVE",
"240 83 OFFCURVE",
"240 54 CURVE SMOOTH",
"240 25 OFFCURVE",
"263 2 OFFCURVE",
"292 2 CURVE SMOOTH"
);
}
);
width = 600;
}
);
unicode = 0021;
},
{
glyphname = exclamdown;
lastChange = "2019-09-15 02:43:03 +0000";
layers = (
{
layerId = "2F22A4FE-F550-4776-9C81-47C8675FAB27";
paths = (
{
closed = 1;
nodes = (
"274 372 OFFCURVE",
"248 356 OFFCURVE",
"248 331 CURVE SMOOTH",
"248 -66 LINE SMOOTH",
"248 -93 OFFCURVE",
"261 -107 OFFCURVE",
"287 -107 CURVE SMOOTH",
"298 -107 LINE SMOOTH",
"324 -107 OFFCURVE",
"337 -93 OFFCURVE",
"337 -66 CURVE SMOOTH",
"337 331 LINE SMOOTH",
"337 356 OFFCURVE",
"310 372 OFFCURVE",
"292 372 CURVE SMOOTH"
);
},
{
closed = 1;
nodes = (
"263 553 OFFCURVE",
"240 530 OFFCURVE",
"240 501 CURVE SMOOTH",
"240 472 OFFCURVE",
"263 449 OFFCURVE",
"291 449 CURVE SMOOTH",
"320 449 OFFCURVE",
"343 472 OFFCURVE",
"343 501 CURVE SMOOTH",
"343 530 OFFCURVE",
"320 553 OFFCURVE",
"291 553 CURVE SMOOTH"
);
}
);
width = 600;
}
);
unicode = 00A1;
},
{
glyphname = question;
lastChange = "2019-09-13 00:26:50 +0000";
layers = (
{
layerId = "2F22A4FE-F550-4776-9C81-47C8675FAB27";
paths = (
{
closed = 1;
nodes = (
"124 500 OFFCURVE",
"180 500 OFFCURVE",
"184 547 QCURVE",
"184 641 OFFCURVE",
"403 640 OFFCURVE",
"399 433 OFFCURVE",
"252 394 OFFCURVE",
"251 336 OFFCURVE",
"248 164 OFFCURVE",
"319 164 OFFCURVE",
"322 296 OFFCURVE",
"323 364 OFFCURVE",
"459 401 OFFCURVE",
"459 578 QCURVE SMOOTH",
"459 650 OFFCURVE",
"295 710 OFFCURVE",
"124 651 OFFCURVE",
"124 540 QCURVE SMOOTH"
);
},
{
closed = 1;
nodes = (
"300 2 OFFCURVE",
"325 25 OFFCURVE",
"325 43 QCURVE SMOOTH",
"325 58 OFFCURVE",
"300 83 OFFCURVE",
"284 83 QCURVE SMOOTH",
"267 83 OFFCURVE",
"244 58 OFFCURVE",
"244 43 QCURVE SMOOTH",
"244 25 OFFCURVE",
"267 2 OFFCURVE",
"284 2 QCURVE SMOOTH"
);
}
);
width = 600;
}
);
unicode = 003F;
},
{
glyphname = questiondown;
lastChange = "2019-09-15 02:42:39 +0000";
layers = (
{
layerId = "2F22A4FE-F550-4776-9C81-47C8675FAB27";
paths = (
{
closed = 1;
nodes = (
"459 37 OFFCURVE",
"403 37 OFFCURVE",
"399 -10 QCURVE",
"399 -104 OFFCURVE",
"180 -103 OFFCURVE",
"184 104 OFFCURVE",
"331 143 OFFCURVE",
"332 201 OFFCURVE",
"335 373 OFFCURVE",
"264 373 OFFCURVE",
"261 241 OFFCURVE",
"260 173 OFFCURVE",
"124 136 OFFCURVE",
"124 -41 QCURVE SMOOTH",
"124 -113 OFFCURVE",
"288 -173 OFFCURVE",
"459 -114 OFFCURVE",
"459 -3 QCURVE SMOOTH"
);
},
{
closed = 1;
nodes = (
"283 535 OFFCURVE",
"258 512 OFFCURVE",
"258 494 QCURVE SMOOTH",
"258 479 OFFCURVE",
"283 454 OFFCURVE",
"299 454 QCURVE SMOOTH",
"316 454 OFFCURVE",
"339 479 OFFCURVE",
"339 494 QCURVE SMOOTH",
"339 512 OFFCURVE",
"316 535 OFFCURVE",
"299 535 QCURVE SMOOTH"
);
}
);
width = 600;
}
);
unicode = 00BF;
},
{
glyphname = asterisk;
lastChange = "2019-08-27 01:29:08 +0000";
layers = (
{
layerId = "2F22A4FE-F550-4776-9C81-47C8675FAB27";
paths = (
{
closed = 1;
nodes = (
"340 546 LINE SMOOTH",
"361 551 OFFCURVE",
"370 564 OFFCURVE",
"363 585 CURVE SMOOTH",
"361 590 LINE SMOOTH",
"355 611 OFFCURVE",
"339 618 OFFCURVE",
"319 609 CURVE SMOOTH",
"234 570 LINE",
"244 664 LINE SMOOTH",
"246 685 OFFCURVE",
"236 698 OFFCURVE",
"214 698 CURVE SMOOTH",
"208 698 LINE SMOOTH",
"187 698 OFFCURVE",
"176 685 OFFCURVE",
"178 664 CURVE SMOOTH",
"188 570 LINE",
"103 609 LINE SMOOTH",
"84 618 OFFCURVE",
"68 611 OFFCURVE",
"61 590 CURVE SMOOTH",
"59 585 LINE SMOOTH",
"53 565 OFFCURVE",
"61 551 OFFCURVE",
"82 546 CURVE SMOOTH",
"174 526 LINE",
"111 457 LINE SMOOTH",
"97 441 OFFCURVE",
"98 424 OFFCURVE",
"115 411 CURVE SMOOTH",
"120 408 LINE SMOOTH",
"137 395 OFFCURVE",
"154 399 OFFCURVE",
"165 418 CURVE SMOOTH",
"212 499 LINE",
"258 418 LINE SMOOTH",
"268 398 OFFCURVE",
"285 395 OFFCURVE",
"302 408 CURVE SMOOTH",
"306 411 LINE SMOOTH",
"323 424 OFFCURVE",
"326 441 OFFCURVE",
"311 457 CURVE SMOOTH",
"248 527 LINE"
);
}
);
width = 600;
}
);
unicode = 002A;
},
{
glyphname = numbersign;
lastChange = "2019-08-27 03:00:38 +0000";
layers = (
{
layerId = "2F22A4FE-F550-4776-9C81-47C8675FAB27";
paths = (
{
closed = 1;
nodes = (
"116 232 LINE SMOOTH",
"132 232 OFFCURVE",
"143 238 OFFCURVE",
"151 253 CURVE SMOOTH",
"186 323 LINE",
"269 323 LINE",
"242 269 LINE SMOOTH",
"231 248 OFFCURVE",
"240 232 OFFCURVE",
"264 232 CURVE SMOOTH",
"273 232 LINE SMOOTH",
"290 232 OFFCURVE",
"301 238 OFFCURVE",
"309 253 CURVE SMOOTH",
"344 323 LINE",
"416 323 LINE SMOOTH",
"433 323 OFFCURVE",
"444 330 OFFCURVE",
"452 344 CURVE SMOOTH",
"461 361 LINE SMOOTH",
"472 382 OFFCURVE",
"463 397 OFFCURVE",
"439 397 CURVE SMOOTH",
"381 397 LINE",
"427 490 LINE",
"495 490 LINE SMOOTH",
"511 490 OFFCURVE",
"522 498 OFFCURVE",
"530 511 CURVE SMOOTH",
"540 528 LINE SMOOTH",
"552 548 OFFCURVE",
"541 565 OFFCURVE",
"517 565 CURVE SMOOTH",
"464 565 LINE",
"491 619 LINE SMOOTH",
"501 639 OFFCURVE",
"493 655 OFFCURVE",
"469 655 CURVE SMOOTH",
"460 655 LINE SMOOTH",
"444 655 OFFCURVE",
"432 648 OFFCURVE",
"424 633 CURVE SMOOTH",
"390 565 LINE",
"307 565 LINE",
"334 619 LINE SMOOTH",
"344 639 OFFCURVE",
"336 655 OFFCURVE",
"312 655 CURVE SMOOTH",
"303 655 LINE SMOOTH",
"286 655 OFFCURVE",
"275 648 OFFCURVE",
"267 633 CURVE SMOOTH",
"233 565 LINE",
"170 565 LINE SMOOTH",
"153 565 OFFCURVE",
"142 557 OFFCURVE",
"134 543 CURVE SMOOTH",
"125 527 LINE SMOOTH",
"113 506 OFFCURVE",
"123 490 OFFCURVE",
"147 490 CURVE SMOOTH",
"195 490 LINE",
"148 397 LINE",
"91 397 LINE SMOOTH",
"75 397 OFFCURVE",
"64 389 OFFCURVE",
"56 376 CURVE SMOOTH",
"46 359 LINE SMOOTH",
"34 339 OFFCURVE",
"45 323 OFFCURVE",
"68 323 CURVE SMOOTH",
"111 323 LINE",
"84 269 LINE SMOOTH",
"73 248 OFFCURVE",
"83 232 OFFCURVE",
"107 232 CURVE SMOOTH"
);
},
{
closed = 1;
nodes = (
"270 490 LINE",
"353 490 LINE",
"306 397 LINE",
"223 397 LINE"
);
}
);
width = 600;
}
);
unicode = 0023;
},
{
glyphname = slash;
lastChange = "2019-09-19 19:56:25 +0000";
layers = (
{
layerId = "2F22A4FE-F550-4776-9C81-47C8675FAB27";
paths = (
{
closed = 1;
nodes = (
"106 87 LINE SMOOTH",
"87 54 OFFCURVE",
"86 29 OFFCURVE",
"102 19 CURVE SMOOTH",
"116 10 OFFCURVE",
"143 26 OFFCURVE",
"163 61 CURVE SMOOTH",
"500 644 LINE SMOOTH",
"521 681 OFFCURVE",
"521 701 OFFCURVE",
"504 712 CURVE SMOOTH",
"486 723 OFFCURVE",
"465 708 OFFCURVE",
"445 674 CURVE SMOOTH"
);
}
);
width = 600;
}
);
unicode = 002F;
},
{
glyphname = backslash;
lastChange = "2019-09-19 19:56:43 +0000";
layers = (
{
layerId = "2F22A4FE-F550-4776-9C81-47C8675FAB27";
paths = (
{
closed = 1;
nodes = (
"440 65 LINE SMOOTH",
"459 33 OFFCURVE",
"480 20 OFFCURVE",
"497 29 CURVE SMOOTH",
"512 36 OFFCURVE",
"511 68 OFFCURVE",
"490 102 CURVE SMOOTH",
"147 682 LINE SMOOTH",
"125 718 OFFCURVE",
"108 728 OFFCURVE",
"90 719 CURVE SMOOTH",
"71 708 OFFCURVE",
"74 683 OFFCURVE",
"94 648 CURVE SMOOTH"
);
}
);
width = 600;
}
);
unicode = 005C;
},
{
glyphname = parenleft;
lastChange = "2019-08-27 02:48:46 +0000";
layers = (
{
layerId = "2F22A4FE-F550-4776-9C81-47C8675FAB27";
paths = (
{
closed = 1;
nodes = (
"320 -9 OFFCURVE",
"418 0 QCURVE SMOOTH",
"441 2 OFFCURVE",
"444 31 QCURVE SMOOTH",
"445 41 OFFCURVE",
"435 57 OFFCURVE",
"421 60 QCURVE SMOOTH",
"416 60 OFFCURVE",
"408 60 QCURVE SMOOTH",
"293 60 OFFCURVE",
"187 148 OFFCURVE",
"154 268 OFFCURVE",
"154 346 QCURVE SMOOTH",
"154 423 OFFCURVE",
"207 558 OFFCURVE",
"318 639 OFFCURVE",
"414 639 QCURVE SMOOTH",
"421 639 OFFCURVE",
"427 641 QCURVE SMOOTH",
"445 647 OFFCURVE",
"445 683 OFFCURVE",
"432 687 QCURVE SMOOTH",
"358 710 OFFCURVE",
"186 627 OFFCURVE",
"93 453 OFFCURVE",
"93 346 QCURVE SMOOTH",
"93 238 OFFCURVE",
"162 76 OFFCURVE"
);
}
);
width = 600;
}
);
unicode = 0028;
},
{
glyphname = parenright;
lastChange = "2019-08-27 02:49:28 +0000";
layers = (
{
layerId = "2F22A4FE-F550-4776-9C81-47C8675FAB27";
paths = (
{
closed = 1;
nodes = (
"445 238 OFFCURVE",
"445 346 QCURVE SMOOTH",
"445 453 OFFCURVE",
"352 627 OFFCURVE",
"180 710 OFFCURVE",
"106 687 QCURVE SMOOTH",
"93 683 OFFCURVE",
"93 647 OFFCURVE",
"111 641 QCURVE SMOOTH",
"117 639 OFFCURVE",
"124 639 QCURVE SMOOTH",
"220 639 OFFCURVE",
"331 558 OFFCURVE",
"384 423 OFFCURVE",
"384 346 QCURVE SMOOTH",
"384 268 OFFCURVE",
"351 148 OFFCURVE",
"245 60 OFFCURVE",
"130 60 QCURVE SMOOTH",
"122 60 OFFCURVE",
"117 60 QCURVE SMOOTH",
"103 57 OFFCURVE",
"93 41 OFFCURVE",
"94 31 QCURVE SMOOTH",
"97 2 OFFCURVE",
"120 0 QCURVE SMOOTH",
"218 -9 OFFCURVE",
"376 76 OFFCURVE"
);
}
);
width = 600;
}
);
unicode = 0029;
},
{
glyphname = hyphen;
lastChange = "2019-08-27 01:24:22 +0000";
layers = (
{
layerId = "2F22A4FE-F550-4776-9C81-47C8675FAB27";
paths = (
{
closed = 1;
nodes = (
"139 287 LINE SMOOTH",
"139 261 OFFCURVE",
"153 247 OFFCURVE",
"179 247 CURVE SMOOTH",
"420 247 LINE SMOOTH",
"446 247 OFFCURVE",
"460 261 OFFCURVE",
"460 287 CURVE SMOOTH",
"460 287 LINE SMOOTH",
"460 312 OFFCURVE",
"446 326 OFFCURVE",
"420 326 CURVE SMOOTH",
"179 326 LINE SMOOTH",
"153 326 OFFCURVE",
"139 312 OFFCURVE",
"139 287 CURVE SMOOTH"
);
}
);
width = 600;
}
);
unicode = 002D;
},
{
glyphname = underscore;
lastChange = "2019-09-15 02:39:29 +0000";
layers = (
{
layerId = "2F22A4FE-F550-4776-9C81-47C8675FAB27";
paths = (
{
closed = 1;
nodes = (
"90 -51 LINE SMOOTH",
"73 -51 OFFCURVE",
"63 -65 OFFCURVE",
"63 -91 CURVE SMOOTH",
"63 -100 LINE SMOOTH",
"63 -126 OFFCURVE",
"73 -140 OFFCURVE",
"90 -140 CURVE SMOOTH",
"508 -140 LINE SMOOTH",
"526 -140 OFFCURVE",
"535 -126 OFFCURVE",
"535 -100 CURVE SMOOTH",
"535 -91 LINE SMOOTH",
"535 -65 OFFCURVE",
"526 -51 OFFCURVE",
"508 -51 CURVE SMOOTH"
);
}
);
width = 600;
}
);
unicode = 005F;
},
{
glyphname = quotedblleft;
lastChange = "2019-09-15 02:44:48 +0000";
layers = (
{
layerId = "2F22A4FE-F550-4776-9C81-47C8675FAB27";
paths = (
{
closed = 1;
nodes = (
"374 544 OFFCURVE",
"375 607 OFFCURVE",
"424 640 CURVE SMOOTH",
"439 650 OFFCURVE",
"429 678 OFFCURVE",
"410 694 CURVE SMOOTH",
"390 711 OFFCURVE",
"371 708 OFFCURVE",
"354 687 CURVE SMOOTH",
"291 609 OFFCURVE",
"303 553 OFFCURVE",
"310 491 CURVE SMOOTH",
"313 466 OFFCURVE",
"327 452 OFFCURVE",
"352 455 CURVE SMOOTH",
"377 458 OFFCURVE",
"394 473 OFFCURVE",
"387 498 CURVE SMOOTH"
);
},
{
closed = 1;
nodes = (
"195 541 OFFCURVE",
"196 604 OFFCURVE",
"245 637 CURVE SMOOTH",
"260 647 OFFCURVE",
"250 675 OFFCURVE",
"231 691 CURVE SMOOTH",
"211 708 OFFCURVE",
"192 705 OFFCURVE",
"175 684 CURVE SMOOTH",
"112 606 OFFCURVE",
"125 550 OFFCURVE",
"130 487 CURVE SMOOTH",
"132 463 OFFCURVE",
"148 449 OFFCURVE",
"173 452 CURVE SMOOTH",
"198 455 OFFCURVE",
"215 470 OFFCURVE",
"208 495 CURVE SMOOTH"
);
}
);
width = 600;
}
);
unicode = 201C;
},
{
glyphname = quotedblright;
lastChange = "2019-09-15 02:45:23 +0000";
layers = (
{
layerId = "2F22A4FE-F550-4776-9C81-47C8675FAB27";
paths = (
{
closed = 1;
nodes = (
"182 613 OFFCURVE",
"181 550 OFFCURVE",
"132 517 CURVE SMOOTH",
"117 507 OFFCURVE",
"127 479 OFFCURVE",
"146 463 CURVE SMOOTH",
"166 446 OFFCURVE",
"185 449 OFFCURVE",
"202 470 CURVE SMOOTH",
"265 548 OFFCURVE",
"253 604 OFFCURVE",
"246 666 CURVE SMOOTH",
"243 691 OFFCURVE",
"229 705 OFFCURVE",
"204 702 CURVE SMOOTH",
"179 699 OFFCURVE",
"162 684 OFFCURVE",
"169 659 CURVE SMOOTH"
);
},
{
closed = 1;
nodes = (
"361 616 OFFCURVE",
"360 553 OFFCURVE",
"311 520 CURVE SMOOTH",
"296 510 OFFCURVE",
"306 482 OFFCURVE",
"325 466 CURVE SMOOTH",
"345 449 OFFCURVE",
"364 452 OFFCURVE",
"381 473 CURVE SMOOTH",
"444 551 OFFCURVE",
"431 607 OFFCURVE",
"426 670 CURVE SMOOTH",
"424 694 OFFCURVE",
"408 708 OFFCURVE",
"383 705 CURVE SMOOTH",
"358 702 OFFCURVE",
"341 687 OFFCURVE",
"348 662 CURVE SMOOTH"
);
}
);
width = 600;
}
);
unicode = 201D;
},
{
glyphname = quoteleft;
lastChange = "2019-09-15 02:45:53 +0000";
layers = (
{
layerId = "2F22A4FE-F550-4776-9C81-47C8675FAB27";
paths = (
{
closed = 1;
nodes = (
"295 541 OFFCURVE",
"296 604 OFFCURVE",
"345 637 CURVE SMOOTH",
"360 647 OFFCURVE",
"350 675 OFFCURVE",
"331 691 CURVE SMOOTH",
"311 708 OFFCURVE",
"292 705 OFFCURVE",
"275 684 CURVE SMOOTH",
"212 606 OFFCURVE",
"224 550 OFFCURVE",
"231 488 CURVE SMOOTH",
"234 463 OFFCURVE",
"248 449 OFFCURVE",
"273 452 CURVE SMOOTH",
"298 455 OFFCURVE",
"315 470 OFFCURVE",
"308 495 CURVE SMOOTH"
);
}
);
width = 600;
}
);
unicode = 2018;
},
{
glyphname = quoteright;
lastChange = "2019-09-15 02:45:44 +0000";
layers = (
{
layerId = "2F22A4FE-F550-4776-9C81-47C8675FAB27";
paths = (
{
closed = 1;
nodes = (
"282 613 OFFCURVE",
"281 550 OFFCURVE",
"232 517 CURVE SMOOTH",
"217 507 OFFCURVE",
"227 479 OFFCURVE",
"246 463 CURVE SMOOTH",
"266 446 OFFCURVE",
"285 449 OFFCURVE",
"302 470 CURVE SMOOTH",
"365 548 OFFCURVE",
"353 604 OFFCURVE",
"346 666 CURVE SMOOTH",
"343 691 OFFCURVE",
"329 705 OFFCURVE",
"304 702 CURVE SMOOTH",
"279 699 OFFCURVE",
"262 684 OFFCURVE",
"269 659 CURVE SMOOTH"
);
}
);
width = 600;
}
);
unicode = 2019;
},
{
glyphname = quotedbl;
lastChange = "2019-08-27 02:37:19 +0000";
layers = (
{
layerId = "2F22A4FE-F550-4776-9C81-47C8675FAB27";
paths = (
{
closed = 1;
nodes = (
"182 613 OFFCURVE",
"181 550 OFFCURVE",
"132 517 CURVE SMOOTH",
"117 507 OFFCURVE",
"127 479 OFFCURVE",
"146 463 CURVE SMOOTH",
"166 446 OFFCURVE",
"185 449 OFFCURVE",
"202 470 CURVE SMOOTH",
"265 548 OFFCURVE",
"253 604 OFFCURVE",
"246 666 CURVE SMOOTH",
"243 691 OFFCURVE",
"229 705 OFFCURVE",
"204 702 CURVE SMOOTH",
"179 699 OFFCURVE",
"162 684 OFFCURVE",
"169 659 CURVE SMOOTH"
);
},
{
closed = 1;
nodes = (
"361 616 OFFCURVE",
"360 553 OFFCURVE",
"311 520 CURVE SMOOTH",
"296 510 OFFCURVE",
"306 482 OFFCURVE",
"325 466 CURVE SMOOTH",
"345 449 OFFCURVE",
"364 452 OFFCURVE",
"381 473 CURVE SMOOTH",
"444 551 OFFCURVE",
"431 607 OFFCURVE",
"426 670 CURVE SMOOTH",
"424 694 OFFCURVE",
"408 708 OFFCURVE",
"383 705 CURVE SMOOTH",
"358 702 OFFCURVE",
"341 687 OFFCURVE",
"348 662 CURVE SMOOTH"
);
}
);
width = 600;
}
);
unicode = 0022;
},
{
glyphname = quotesingle;
lastChange = "2019-08-27 02:35:19 +0000";
layers = (
{
layerId = "2F22A4FE-F550-4776-9C81-47C8675FAB27";
paths = (
{
closed = 1;
nodes = (
"263 613 OFFCURVE",
"255 551 OFFCURVE",
"204 523 CURVE SMOOTH",
"188 514 OFFCURVE",
"195 485 OFFCURVE",
"213 468 CURVE SMOOTH",
"232 450 OFFCURVE",
"250 450 OFFCURVE",
"269 469 CURVE SMOOTH",
"340 540 OFFCURVE",
"333 597 OFFCURVE",
"333 660 CURVE SMOOTH",
"333 685 OFFCURVE",
"319 700 OFFCURVE",
"294 700 CURVE SMOOTH",
"269 700 OFFCURVE",
"251 686 OFFCURVE",
"255 660 CURVE SMOOTH"
);
}
);
width = 600;
}
);
unicode = 0027;
},
{
glyphname = cent;
lastChange = "2019-09-15 03:01:18 +0000";
layers = (
{
layerId = "2F22A4FE-F550-4776-9C81-47C8675FAB27";
paths = (
{
closed = 1;
nodes = (
"345 0 OFFCURVE",
"361 18 OFFCURVE",
"361 41 CURVE SMOOTH",
"361 101 LINE",
"384 103 OFFCURVE",
"404 107 OFFCURVE",
"421 113 CURVE SMOOTH",
"446 122 OFFCURVE",
"469 133 OFFCURVE",
"491 146 CURVE SMOOTH",
"504 154 OFFCURVE",
"511 165 OFFCURVE",
"511 180 CURVE SMOOTH",
"511 189 OFFCURVE",
"507 198 OFFCURVE",
"500 206 CURVE",
"492 214 OFFCURVE",
"483 218 OFFCURVE",
"473 218 CURVE SMOOTH",
"466 218 OFFCURVE",
"459 216 OFFCURVE",
"454 213 CURVE",
"434 200 OFFCURVE",
"416 190 OFFCURVE",
"399 183 CURVE",
"388 178 OFFCURVE",
"375 175 OFFCURVE",
"361 173 CURVE",
"361 539 LINE",
"374 538 OFFCURVE",
"386 535 OFFCURVE",
"395 531 CURVE",
"409 524 OFFCURVE",
"427 515 OFFCURVE",
"449 503 CURVE SMOOTH",
"456 499 OFFCURVE",
"464 497 OFFCURVE",
"471 498 CURVE",
"481 499 OFFCURVE",
"490 503 OFFCURVE",
"498 511 CURVE SMOOTH",
"505 518 OFFCURVE",
"509 527 OFFCURVE",
"509 536 CURVE SMOOTH",
"509 550 OFFCURVE",
"504 559 OFFCURVE",
"494 564 CURVE SMOOTH",
"471 575 OFFCURVE",
"447 585 OFFCURVE",
"422 595 CURVE SMOOTH",
"404 602 OFFCURVE",
"384 607 OFFCURVE",
"361 609 CURVE",
"361 659 LINE SMOOTH",
"361 682 OFFCURVE",
"344 700 OFFCURVE",
"322 700 CURVE SMOOTH",
"299 700 OFFCURVE",
"282 682 OFFCURVE",
"282 659 CURVE SMOOTH",
"282 606 LINE",
"252 602 OFFCURVE",
"224 592 OFFCURVE",
"198 579 CURVE SMOOTH",
"157 558 OFFCURVE",
"125 529 OFFCURVE",
"101 491 CURVE SMOOTH",
"76 452 OFFCURVE",
"64 407 OFFCURVE",
"64 355 CURVE SMOOTH",
"64 303 OFFCURVE",
"76 258 OFFCURVE",
"101 220 CURVE SMOOTH",
"125 181 OFFCURVE",
"157 152 OFFCURVE",
"198 131 CURVE SMOOTH",
"224 118 OFFCURVE",
"252 108 OFFCURVE",
"282 104 CURVE",
"282 41 LINE SMOOTH",
"282 18 OFFCURVE",
"299 0 OFFCURVE",
"322 0 CURVE SMOOTH"
);
},
{
closed = 1;
nodes = (
"249 187 OFFCURVE",
"221 202 OFFCURVE",
"197 225 CURVE SMOOTH",
"160 260 OFFCURVE",
"141 303 OFFCURVE",
"141 355 CURVE SMOOTH",
"141 407 OFFCURVE",
"160 451 OFFCURVE",
"197 487 CURVE SMOOTH",
"221 510 OFFCURVE",
"249 525 OFFCURVE",
"282 533 CURVE",
"282 179 LINE"
);
}
);
width = 600;
}
);
unicode = 00A2;
},
{
glyphname = dollar;
lastChange = "2019-08-27 02:26:58 +0000";
layers = (
{
layerId = "2F22A4FE-F550-4776-9C81-47C8675FAB27";
paths = (
{
closed = 1;
nodes = (
"317 0 OFFCURVE",
"327 14 OFFCURVE",
"327 40 CURVE SMOOTH",
"327 93 LINE",
"360 94 OFFCURVE",
"390 100 OFFCURVE",
"417 113 CURVE SMOOTH",
"451 128 OFFCURVE",
"478 147 OFFCURVE",
"497 170 CURVE SMOOTH",
"516 193 OFFCURVE",
"525 218 OFFCURVE",
"525 246 CURVE SMOOTH",
"525 292 OFFCURVE",
"517 324 OFFCURVE",
"502 341 CURVE SMOOTH",
"487 358 OFFCURVE",
"462 372 OFFCURVE",
"429 382 CURVE SMOOTH",
"399 391 OFFCURVE",
"366 399 OFFCURVE",
"327 407 CURVE",
"327 591 LINE",
"369 589 OFFCURVE",
"409 582 OFFCURVE",
"449 571 CURVE",
"455 569 OFFCURVE",
"460 568 OFFCURVE",
"463 568 CURVE SMOOTH",
"474 568 OFFCURVE",
"483 571 OFFCURVE",
"490 578 CURVE",
"496 585 OFFCURVE",
"499 592 OFFCURVE",
"499 600 CURVE SMOOTH",
"499 609 OFFCURVE",
"491 617 OFFCURVE",
"474 622 CURVE",
"429 637 OFFCURVE",
"380 645 OFFCURVE",
"327 647 CURVE",
"327 660 LINE SMOOTH",
"327 686 OFFCURVE",
"317 700 OFFCURVE",
"300 700 CURVE SMOOTH",
"283 700 OFFCURVE",
"273 686 OFFCURVE",
"273 660 CURVE SMOOTH",
"273 646 LINE",
"236 643 OFFCURVE",
"206 637 OFFCURVE",
"182 626 CURVE SMOOTH",
"153 612 OFFCURVE",
"129 593 OFFCURVE",
"112 570 CURVE SMOOTH",
"94 546 OFFCURVE",
"85 519 OFFCURVE",
"85 490 CURVE SMOOTH",
"85 457 OFFCURVE",
"96 432 OFFCURVE",
"117 415 CURVE SMOOTH",
"138 398 OFFCURVE",
"161 385 OFFCURVE",
"186 378 CURVE SMOOTH",
"206 372 OFFCURVE",
"235 364 OFFCURVE",
"273 356 CURVE",
"273 151 LINE",
"197 159 OFFCURVE",
"135 175 OFFCURVE",
"85 200 CURVE",
"80 203 OFFCURVE",
"74 204 OFFCURVE",
"67 203 CURVE",
"56 202 OFFCURVE",
"48 199 OFFCURVE",
"42 196 CURVE",
"35 193 OFFCURVE",
"32 187 OFFCURVE",
"32 179 CURVE SMOOTH",
"32 172 OFFCURVE",
"34 165 OFFCURVE",
"39 159 CURVE",
"44 152 OFFCURVE",
"50 147 OFFCURVE",
"57 144 CURVE SMOOTH",
"115 119 OFFCURVE",
"187 102 OFFCURVE",
"273 95 CURVE",
"273 40 LINE SMOOTH",
"273 14 OFFCURVE",
"283 0 OFFCURVE",
"300 0 CURVE SMOOTH"
);
},
{
closed = 1;
nodes = (
"327 343 LINE",
"349 338 OFFCURVE",
"368 334 OFFCURVE",
"384 330 CURVE SMOOTH",
"409 324 OFFCURVE",
"428 316 OFFCURVE",
"441 306 CURVE",
"454 295 OFFCURVE",
"461 277 OFFCURVE",
"461 251 CURVE SMOOTH",
"461 183 OFFCURVE",
"416 148 OFFCURVE",
"327 147 CURVE"
);
},
{
closed = 1;
nodes = (
"254 423 OFFCURVE",
"238 427 OFFCURVE",
"226 432 CURVE",
"207 438 OFFCURVE",
"191 446 OFFCURVE",
"178 455 CURVE SMOOTH",
"165 464 OFFCURVE",
"158 477 OFFCURVE",
"158 496 CURVE SMOOTH",
"158 529 OFFCURVE",
"171 554 OFFCURVE",
"198 569 CURVE SMOOTH",
"217 580 OFFCURVE",
"242 587 OFFCURVE",
"273 590 CURVE",
"273 419 LINE"
);
}
);
width = 600;
}
);
unicode = 0024;
},
{
glyphname = euro;
lastChange = "2019-09-19 20:02:53 +0000";
layers = (
{
layerId = "2F22A4FE-F550-4776-9C81-47C8675FAB27";
paths = (
{
closed = 1;
nodes = (
"462 -10 OFFCURVE",
"491 -5 OFFCURVE",
"517 6 CURVE SMOOTH",
"542 17 OFFCURVE",
"568 31 OFFCURVE",
"595 49 CURVE SMOOTH",
"606 56 OFFCURVE",
"611 68 OFFCURVE",
"611 85 CURVE SMOOTH",
"611 95 OFFCURVE",
"608 104 OFFCURVE",
"603 111 CURVE SMOOTH",
"598 118 OFFCURVE",
"591 121 OFFCURVE",
"582 121 CURVE SMOOTH",
"577 121 OFFCURVE",
"573 120 OFFCURVE",
"569 117 CURVE",
"547 102 OFFCURVE",
"526 91 OFFCURVE",
"506 84 CURVE SMOOTH",
"485 76 OFFCURVE",
"462 72 OFFCURVE",
"436 72 CURVE SMOOTH",
"393 72 OFFCURVE",
"357 83 OFFCURVE",
"328 106 CURVE SMOOTH",
"299 129 OFFCURVE",
"277 159 OFFCURVE",
"262 198 CURVE",
"259 205 OFFCURVE",
"256 213 OFFCURVE",
"254 221 CURVE",
"370 221 LINE SMOOTH",
"393 221 OFFCURVE",
"411 235 OFFCURVE",
"411 253 CURVE SMOOTH",
"411 271 OFFCURVE",
"393 285 OFFCURVE",
"370 285 CURVE SMOOTH",
"242 285 LINE",
"241 299 OFFCURVE",
"240 314 OFFCURVE",
"240 329 CURVE SMOOTH",
"240 344 OFFCURVE",
"241 358 OFFCURVE",
"242 372 CURVE",
"370 372 LINE SMOOTH",
"393 372 OFFCURVE",
"411 386 OFFCURVE",
"411 404 CURVE SMOOTH",
"411 422 OFFCURVE",
"393 436 OFFCURVE",
"370 436 CURVE SMOOTH",
"254 436 LINE",
"256 444 OFFCURVE",
"259 452 OFFCURVE",
"262 460 CURVE SMOOTH",
"277 499 OFFCURVE",
"299 529 OFFCURVE",
"328 551 CURVE SMOOTH",
"357 573 OFFCURVE",
"393 584 OFFCURVE",
"436 584 CURVE SMOOTH",
"462 584 OFFCURVE",
"485 580 OFFCURVE",
"506 573 CURVE",
"526 565 OFFCURVE",
"547 554 OFFCURVE",
"569 539 CURVE",
"573 536 OFFCURVE",
"577 535 OFFCURVE",
"582 536 CURVE",
"591 537 OFFCURVE",
"598 541 OFFCURVE",
"603 548 CURVE",
"608 554 OFFCURVE",
"611 562 OFFCURVE",
"611 572 CURVE SMOOTH",
"611 588 OFFCURVE",
"606 600 OFFCURVE",
"595 608 CURVE SMOOTH",
"570 627 OFFCURVE",
"544 641 OFFCURVE",
"518 651 CURVE SMOOTH",
"491 661 OFFCURVE",
"462 666 OFFCURVE",
"429 666 CURVE SMOOTH",
"380 666 OFFCURVE",
"337 652 OFFCURVE",
"298 625 CURVE SMOOTH",
"259 598 OFFCURVE",
"229 559 OFFCURVE",
"207 508 CURVE SMOOTH",
"197 485 OFFCURVE",
"189 461 OFFCURVE",
"184 436 CURVE",
"101 436 LINE SMOOTH",
"78 436 OFFCURVE",
"60 422 OFFCURVE",
"60 404 CURVE SMOOTH",
"60 385 OFFCURVE",
"78 372 OFFCURVE",
"101 372 CURVE SMOOTH",
"175 372 LINE",
"174 358 OFFCURVE",
"173 344 OFFCURVE",
"173 329 CURVE SMOOTH",
"173 314 OFFCURVE",
"174 299 OFFCURVE",
"175 285 CURVE",
"101 285 LINE SMOOTH",
"78 285 OFFCURVE",
"60 271 OFFCURVE",
"60 253 CURVE SMOOTH",
"60 234 OFFCURVE",
"78 221 OFFCURVE",
"101 221 CURVE SMOOTH",
"184 221 LINE",
"189 195 OFFCURVE",
"197 171 OFFCURVE",
"207 149 CURVE SMOOTH",
"229 98 OFFCURVE",
"259 58 OFFCURVE",
"298 31 CURVE SMOOTH",
"337 4 OFFCURVE",
"380 -10 OFFCURVE",
"429 -10 CURVE SMOOTH"
);
}
);
width = 600;
}
);
unicode = 20AC;
},
{
glyphname = plus;
lastChange = "2019-08-27 01:27:14 +0000";
layers = (
{
layerId = "2F22A4FE-F550-4776-9C81-47C8675FAB27";
paths = (
{
closed = 1;
nodes = (
"529 273 OFFCURVE",
"515 285 OFFCURVE",
"489 285 CURVE SMOOTH",
"323 285 LINE",
"323 461 LINE SMOOTH",
"323 487 OFFCURVE",
"311 501 OFFCURVE",
"289 501 CURVE SMOOTH",
"267 501 OFFCURVE",
"254 487 OFFCURVE",
"254 461 CURVE SMOOTH",
"254 285 LINE",
"90 285 LINE SMOOTH",
"64 285 OFFCURVE",
"50 273 OFFCURVE",
"50 251 CURVE SMOOTH",
"50 229 OFFCURVE",
"64 216 OFFCURVE",
"90 216 CURVE SMOOTH",
"254 216 LINE",
"254 40 LINE SMOOTH",
"254 14 OFFCURVE",
"267 0 OFFCURVE",
"289 0 CURVE SMOOTH",
"311 0 OFFCURVE",
"323 14 OFFCURVE",
"323 40 CURVE SMOOTH",
"323 216 LINE",
"489 216 LINE SMOOTH",
"515 216 OFFCURVE",
"529 229 OFFCURVE",
"529 251 CURVE SMOOTH"
);
}
);
width = 600;
}
);
unicode = 002B;
},
{
glyphname = minus;
lastChange = "2019-09-15 02:39:10 +0000";
layers = (
{
layerId = "2F22A4FE-F550-4776-9C81-47C8675FAB27";
paths = (
{
closed = 1;
nodes = (
"90 395 LINE SMOOTH",
"73 395 OFFCURVE",
"63 381 OFFCURVE",
"63 355 CURVE SMOOTH",
"63 346 LINE SMOOTH",
"63 320 OFFCURVE",
"73 306 OFFCURVE",
"90 306 CURVE SMOOTH",
"508 306 LINE SMOOTH",
"526 306 OFFCURVE",
"535 320 OFFCURVE",
"535 346 CURVE SMOOTH",
"535 355 LINE SMOOTH",
"535 381 OFFCURVE",
"526 395 OFFCURVE",
"508 395 CURVE SMOOTH"
);
}
);
width = 600;
}
);
unicode = 2212;
},
{
glyphname = multiply;
lastChange = "2019-09-15 02:23:04 +0000";
layers = (
{
layerId = "2F22A4FE-F550-4776-9C81-47C8675FAB27";
paths = (
{
closed = 1;
nodes = (
"134 69 OFFCURVE",
"153 71 OFFCURVE",
"171 89 CURVE",
"286 209 LINE",
"413 87 LINE",
"431 69 OFFCURVE",
"450 68 OFFCURVE",
"465 84 CURVE",
"480 100 OFFCURVE",
"479 119 OFFCURVE",
"460 137 CURVE",
"333 259 LINE",
"447 377 LINE",
"465 396 OFFCURVE",
"466 414 OFFCURVE",
"450 430 CURVE",
"434 446 OFFCURVE",
"415 444 OFFCURVE",
"397 425 CURVE",
"284 307 LINE",
"157 429 LINE",
"138 447 OFFCURVE",
"119 447 OFFCURVE",
"104 431 CURVE",
"88 414 OFFCURVE",
"90 397 OFFCURVE",
"109 379 CURVE",
"236 257 LINE",
"121 137 LINE",
"103 118 OFFCURVE",
"103 100 OFFCURVE",
"119 84 CURVE"
);
}
);
width = 600;
}
);
unicode = 00D7;
},
{
glyphname = divide;
lastChange = "2019-09-15 02:40:41 +0000";
layers = (
{
layerId = "2F22A4FE-F550-4776-9C81-47C8675FAB27";
paths = (
{
closed = 1;
nodes = (
"90 334 LINE SMOOTH",
"73 334 OFFCURVE",
"63 320 OFFCURVE",
"63 294 CURVE SMOOTH",
"63 285 LINE SMOOTH",
"63 259 OFFCURVE",
"73 245 OFFCURVE",
"90 245 CURVE SMOOTH",
"508 245 LINE SMOOTH",
"526 245 OFFCURVE",
"535 259 OFFCURVE",
"535 285 CURVE SMOOTH",
"535 294 LINE SMOOTH",
"535 320 OFFCURVE",
"526 334 OFFCURVE",
"508 334 CURVE SMOOTH"
);
},
{
closed = 1;
nodes = (
"330 45 OFFCURVE",
"357 71 OFFCURVE",
"357 104 CURVE SMOOTH",
"357 137 OFFCURVE",
"330 162 OFFCURVE",
"298 162 CURVE SMOOTH",
"265 162 OFFCURVE",
"239 137 OFFCURVE",
"239 104 CURVE SMOOTH",
"239 71 OFFCURVE",
"265 45 OFFCURVE",
"298 45 CURVE SMOOTH"
);
},
{
closed = 1;
nodes = (
"330 415 OFFCURVE",
"357 441 OFFCURVE",
"357 474 CURVE SMOOTH",
"357 507 OFFCURVE",
"330 532 OFFCURVE",
"298 532 CURVE SMOOTH",
"265 532 OFFCURVE",
"239 507 OFFCURVE",
"239 474 CURVE SMOOTH",
"239 441 OFFCURVE",
"265 415 OFFCURVE",
"298 415 CURVE SMOOTH"
);
}
);
width = 600;
}
);
unicode = 00F7;
},
{
glyphname = equal;
lastChange = "2019-09-15 02:39:51 +0000";
layers = (
{
layerId = "2F22A4FE-F550-4776-9C81-47C8675FAB27";
paths = (
{
closed = 1;
nodes = (
"90 431 LINE SMOOTH",
"73 431 OFFCURVE",
"63 417 OFFCURVE",
"63 391 CURVE SMOOTH",
"63 382 LINE SMOOTH",
"63 356 OFFCURVE",
"73 342 OFFCURVE",
"90 342 CURVE SMOOTH",
"508 342 LINE SMOOTH",
"526 342 OFFCURVE",
"535 356 OFFCURVE",
"535 382 CURVE SMOOTH",
"535 391 LINE SMOOTH",
"535 417 OFFCURVE",
"526 431 OFFCURVE",
"508 431 CURVE SMOOTH"
);
},
{
closed = 1;
nodes = (
"90 213 LINE SMOOTH",
"73 213 OFFCURVE",
"63 199 OFFCURVE",
"63 173 CURVE SMOOTH",
"63 164 LINE SMOOTH",
"63 138 OFFCURVE",
"73 124 OFFCURVE",
"90 124 CURVE SMOOTH",
"508 124 LINE SMOOTH",
"526 124 OFFCURVE",
"535 138 OFFCURVE",
"535 164 CURVE SMOOTH",
"535 173 LINE SMOOTH",
"535 199 OFFCURVE",
"526 213 OFFCURVE",
"508 213 CURVE SMOOTH"
);
}
);
width = 600;
}
);
unicode = 003D;
},
{
glyphname = greater;
lastChange = "2019-09-15 02:38:04 +0000";
layers = (
{
layerId = "2F22A4FE-F550-4776-9C81-47C8675FAB27";
paths = (
{
closed = 1;
nodes = (
"139 429 LINE SMOOTH",
"136 407 OFFCURVE",
"157 395 OFFCURVE",
"175 386 CURVE SMOOTH",
"443 257 LINE",
"168 119 LINE SMOOTH",
"150 110 OFFCURVE",
"132 95 OFFCURVE",
"136 73 CURVE SMOOTH",
"137 67 LINE SMOOTH",
"141 44 OFFCURVE",
"161 40 OFFCURVE",
"175 47 CURVE SMOOTH",
"472 196 LINE SMOOTH",
"492 206 OFFCURVE",
"513 230 OFFCURVE",
"513 257 CURVE SMOOTH",
"513 285 OFFCURVE",
"492 310 OFFCURVE",
"472 319 CURVE SMOOTH",
"182 458 LINE SMOOTH",
"168 465 OFFCURVE",
"143 459 OFFCURVE",
"140 436 CURVE SMOOTH"
);
}
);
width = 600;
}
);
unicode = 003E;
},
{
glyphname = less;
lastChange = "2019-09-15 02:37:13 +0000";
layers = (
{
layerId = "2F22A4FE-F550-4776-9C81-47C8675FAB27";
paths = (
{
closed = 1;
nodes = (
"449 76 LINE SMOOTH",
"452 98 OFFCURVE",
"431 110 OFFCURVE",
"413 119 CURVE SMOOTH",
"145 248 LINE",
"420 386 LINE SMOOTH",
"438 395 OFFCURVE",
"456 410 OFFCURVE",
"452 432 CURVE SMOOTH",
"451 438 LINE SMOOTH",
"447 461 OFFCURVE",
"427 465 OFFCURVE",
"413 458 CURVE SMOOTH",
"116 309 LINE SMOOTH",
"96 299 OFFCURVE",
"75 275 OFFCURVE",
"75 248 CURVE SMOOTH",
"75 220 OFFCURVE",
"96 195 OFFCURVE",
"116 186 CURVE SMOOTH",
"406 47 LINE SMOOTH",
"420 40 OFFCURVE",
"445 46 OFFCURVE",
"448 69 CURVE SMOOTH"
);
}
);
width = 600;
}
);
unicode = 003C;
},
{
glyphname = at;
lastChange = "2019-09-15 02:30:44 +0000";
layers = (
{
layerId = "2F22A4FE-F550-4776-9C81-47C8675FAB27";
paths = (
{
closed = 1;
nodes = (
"284 -109 OFFCURVE",
"269 -93 OFFCURVE",
"247 -91 CURVE SMOOTH",
"162 -85 OFFCURVE",
"94 -57 OFFCURVE",
"44 -8 CURVE SMOOTH",
"-12 49 OFFCURVE",
"-40 131 OFFCURVE",
"-40 238 CURVE SMOOTH",
"-40 311 OFFCURVE",
"-26 377 OFFCURVE",
"1 436 CURVE SMOOTH",
"29 495 OFFCURVE",
"71 541 OFFCURVE",
"125 576 CURVE SMOOTH",
"179 609 OFFCURVE",
"242 626 OFFCURVE",
"316 626 CURVE SMOOTH",
"381 626 OFFCURVE",
"436 613 OFFCURVE",
"482 589 CURVE SMOOTH",
"526 562 OFFCURVE",
"560 528 OFFCURVE",
"584 481 CURVE SMOOTH",
"607 435 OFFCURVE",
"618 383 OFFCURVE",
"618 321 CURVE SMOOTH",
"618 277 OFFCURVE",
"614 240 OFFCURVE",
"603 208 CURVE SMOOTH",
"593 175 OFFCURVE",
"580 151 OFFCURVE",
"562 134 CURVE SMOOTH",
"545 117 OFFCURVE",
"526 108 OFFCURVE",
"506 106 CURVE SMOOTH",
"489 103 OFFCURVE",
"477 107 OFFCURVE",
"472 129 CURVE",
"472 422 LINE SMOOTH",
"472 444 OFFCURVE",
"462 455 OFFCURVE",
"444 455 CURVE SMOOTH",
"426 455 OFFCURVE",
"415 444 OFFCURVE",
"415 422 CURVE SMOOTH",
"415 389 LINE",
"384 437 OFFCURVE",
"340 461 OFFCURVE",
"283 461 CURVE SMOOTH",
"226 461 OFFCURVE",
"180 441 OFFCURVE",
"146 401 CURVE SMOOTH",
"113 361 OFFCURVE",
"96 312 OFFCURVE",
"96 253 CURVE SMOOTH",
"96 195 OFFCURVE",
"113 146 OFFCURVE",
"146 106 CURVE SMOOTH",
"180 66 OFFCURVE",
"225 45 OFFCURVE",
"280 45 CURVE SMOOTH",
"339 45 OFFCURVE",
"385 69 OFFCURVE",
"415 117 CURVE",
"415 84 LINE SMOOTH",
"415 66 OFFCURVE",
"433 53 OFFCURVE",
"445 48 CURVE",
"461 40 OFFCURVE",
"475 36 OFFCURVE",
"503 38 CURVE SMOOTH",
"537 40 OFFCURVE",
"566 56 OFFCURVE",
"595 81 CURVE SMOOTH",
"623 105 OFFCURVE",
"646 139 OFFCURVE",
"664 181 CURVE SMOOTH",
"680 225 OFFCURVE",
"689 271 OFFCURVE",
"689 323 CURVE SMOOTH",
"689 397 OFFCURVE",
"675 461 OFFCURVE",
"647 516 CURVE SMOOTH",
"618 571 OFFCURVE",
"577 613 OFFCURVE",
"522 643 CURVE SMOOTH",
"468 673 OFFCURVE",
"402 687 OFFCURVE",
"326 687 CURVE SMOOTH",
"241 687 OFFCURVE",
"166 669 OFFCURVE",
"100 630 CURVE SMOOTH",
"33 591 OFFCURVE",
"-18 537 OFFCURVE",
"-53 468 CURVE SMOOTH",
"-90 400 OFFCURVE",
"-108 322 OFFCURVE",
"-108 238 CURVE SMOOTH",
"-108 113 OFFCURVE",
"-75 17 OFFCURVE",
"-8 -51 CURVE SMOOTH",
"55 -113 OFFCURVE",
"140 -147 OFFCURVE",
"250 -153 CURVE SMOOTH",
"265 -153 OFFCURVE",
"277 -143 OFFCURVE",
"280 -129 CURVE SMOOTH"
);
},
{
closed = 1;
nodes = (
"171 135 OFFCURVE",
"153 210 OFFCURVE",
"153 253 CURVE SMOOTH",
"153 297 OFFCURVE",
"165 333 OFFCURVE",
"188 361 CURVE SMOOTH",
"214 391 OFFCURVE",
"247 406 OFFCURVE",
"287 406 CURVE SMOOTH",
"328 406 OFFCURVE",
"361 391 OFFCURVE",
"384 361 CURVE SMOOTH",
"407 333 OFFCURVE",
"418 297 OFFCURVE",
"418 253 CURVE SMOOTH",
"418 210 OFFCURVE",
"407 174 OFFCURVE",
"384 146 CURVE SMOOTH",
"361 116 OFFCURVE",
"289 91 OFFCURVE",
"241 105 CURVE"
);
}
);
width = 600;
}
);
unicode = 0040;
},
{
glyphname = copyright;
lastChange = "2019-09-19 20:17:13 +0000";
layers = (
{
layerId = "2F22A4FE-F550-4776-9C81-47C8675FAB27";
paths = (
{
closed = 1;
nodes = (
"338 85 OFFCURVE",
"392 104 OFFCURVE",
"416 119 QCURVE SMOOTH",
"431 128 OFFCURVE",
"431 144 QCURVE SMOOTH",
"431 155 OFFCURVE",
"414 173 OFFCURVE",
"403 173 QCURVE SMOOTH",
"395 173 OFFCURVE",
"389 169 QCURVE SMOOTH",
"367 155 OFFCURVE",
"331 138 OFFCURVE",
"305 138 QCURVE SMOOTH",
"242 138 OFFCURVE",
"161 217 OFFCURVE",
"161 275 QCURVE SMOOTH",
"161 333 OFFCURVE",
"242 413 OFFCURVE",
"305 413 QCURVE SMOOTH",
"331 413 OFFCURVE",
"361 400 OFFCURVE",
"385 385 QCURVE SMOOTH",
"393 380 OFFCURVE",
"401 382 QCURVE SMOOTH",
"412 385 OFFCURVE",
"429 400 OFFCURVE",
"429 410 QCURVE SMOOTH",
"429 426 OFFCURVE",
"418 431 QCURVE SMOOTH",
"392 443 OFFCURVE",
"338 465 OFFCURVE",
"299 465 QCURVE SMOOTH",
"247 465 OFFCURVE",
"158 419 OFFCURVE",
"104 333 OFFCURVE",
"104 275 QCURVE SMOOTH",
"104 217 OFFCURVE",
"158 131 OFFCURVE",
"247 85 OFFCURVE",
"299 85 QCURVE SMOOTH"
);
},
{
closed = 1;
nodes = (
"148 602 OFFCURVE",
"55 505 QCURVE SMOOTH",
"-36 411 OFFCURVE",
"-36 128 OFFCURVE",
"55 34 QCURVE SMOOTH",
"148 -63 OFFCURVE",
"294 -63 QCURVE SMOOTH",
"439 -63 OFFCURVE",
"532 34 QCURVE SMOOTH",
"623 128 OFFCURVE",
"623 411 OFFCURVE",
"532 505 QCURVE SMOOTH",
"439 602 OFFCURVE",
"294 602 QCURVE SMOOTH"
);
},
{
closed = 1;
nodes = (
"174 1 OFFCURVE",
"100 78 QCURVE SMOOTH",
"29 152 OFFCURVE",
"23 270 QCURVE SMOOTH",
"16 387 OFFCURVE",
"100 461 QCURVE SMOOTH",
"181 539 OFFCURVE",
"294 539 QCURVE SMOOTH",
"414 539 OFFCURVE",
"487 461 QCURVE SMOOTH",
"557 387 OFFCURVE",
"558 270 QCURVE SMOOTH",
"563 153 OFFCURVE",
"487 78 QCURVE SMOOTH",
"410 1 OFFCURVE",
"294 1 QCURVE SMOOTH"
);
}
);
width = 600;
}
);
unicode = 00A9;
},
{
glyphname = registered;
lastChange = "2019-09-19 20:38:04 +0000";
layers = (
{
layerId = "2F22A4FE-F550-4776-9C81-47C8675FAB27";
paths = (
{
closed = 1;
nodes = (
"237 761 OFFCURVE",
"166 723 OFFCURVE",
"125 650 OFFCURVE",
"125 601 QCURVE SMOOTH",
"125 553 OFFCURVE",
"166 480 OFFCURVE",
"237 442 OFFCURVE",
"282 442 QCURVE SMOOTH",
"327 442 OFFCURVE",
"397 480 OFFCURVE",
"438 553 OFFCURVE",
"438 601 QCURVE SMOOTH",
"438 650 OFFCURVE",
"397 723 OFFCURVE",
"327 761 OFFCURVE",
"282 761 QCURVE SMOOTH"
);
},
{
closed = 1;
nodes = (
"317 743 OFFCURVE",
"374 711 OFFCURVE",
"411 646 OFFCURVE",
"411 600 QCURVE SMOOTH",
"411 554 OFFCURVE",
"374 490 OFFCURVE",
"316 465 OFFCURVE",
"283 465 QCURVE SMOOTH",
"250 465 OFFCURVE",
"189 490 OFFCURVE",
"153 554 OFFCURVE",
"153 600 QCURVE SMOOTH",
"153 646 OFFCURVE",
"189 711 OFFCURVE",
"247 743 OFFCURVE",
"282 743 QCURVE SMOOTH"
);
},
{
closed = 1;
nodes = (
"225 682 LINE",
"295 682 LINE SMOOTH",
"318 682 OFFCURVE",
"343 661 OFFCURVE",
"343 642 QCURVE SMOOTH",
"343 630 OFFCURVE",
"339 622 QCURVE SMOOTH",
"328 603 OFFCURVE",
"295 603 QCURVE SMOOTH",
"225 603 LINE"
);
},
{
closed = 1;
nodes = (
"225 582 LINE",
"225 582 LINE",
"339 512 LINE SMOOTH",
"343 509 OFFCURVE",
"347 504 OFFCURVE",
"352 504 CURVE SMOOTH",
"356 504 LINE SMOOTH",
"364 504 OFFCURVE",
"369 517 OFFCURVE",
"360 522 CURVE SMOOTH",
"254 586 LINE",
"260 586 OFFCURVE",
"318 583 OFFCURVE",
"335 591 CURVE SMOOTH",
"356 600 OFFCURVE",
"365 617 OFFCURVE",
"365 642 CURVE SMOOTH",
"365 661 OFFCURVE",
"360 674 OFFCURVE",
"347 687 CURVE SMOOTH",
"335 699 OFFCURVE",
"318 704 OFFCURVE",
"299 704 CURVE SMOOTH",
"216 704 LINE SMOOTH",
"207 704 OFFCURVE",
"203 699 OFFCURVE",
"203 691 CURVE SMOOTH",
"203 517 LINE SMOOTH",
"203 509 OFFCURVE",
"207 504 OFFCURVE",
"214 504 CURVE SMOOTH",
"221 504 OFFCURVE",
"225 509 OFFCURVE",
"225 517 CURVE SMOOTH"
);
}
);
width = 600;
}
);
unicode = 00AE;
},
{
glyphname = degree;
lastChange = "2019-09-19 20:35:59 +0000";
layers = (
{
layerId = "2F22A4FE-F550-4776-9C81-47C8675FAB27";
paths = (
{
closed = 1;
nodes = (
"283 707 OFFCURVE",
"236 681 OFFCURVE",
"208 632 OFFCURVE",
"208 599 QCURVE SMOOTH",
"208 566 OFFCURVE",
"236 518 OFFCURVE",
"283 492 OFFCURVE",
"314 492 QCURVE SMOOTH",
"344 492 OFFCURVE",
"392 518 OFFCURVE",
"419 566 OFFCURVE",
"419 599 QCURVE SMOOTH",
"419 632 OFFCURVE",
"392 681 OFFCURVE",
"344 707 OFFCURVE",
"314 707 QCURVE SMOOTH"
);
},
{
closed = 1;
nodes = (
"329 660 OFFCURVE",
"353 646 OFFCURVE",
"368 619 OFFCURVE",
"368 600 QCURVE SMOOTH",
"368 580 OFFCURVE",
"353 553 OFFCURVE",
"329 542 OFFCURVE",
"315 542 QCURVE SMOOTH",
"301 542 OFFCURVE",
"274 553 OFFCURVE",
"259 580 OFFCURVE",
"259 600 QCURVE SMOOTH",
"259 619 OFFCURVE",
"274 646 OFFCURVE",
"299 660 OFFCURVE",
"314 660 QCURVE SMOOTH"
);
}
);
width = 600;
}
);
unicode = 00B0;
},
{
glyphname = circumflex;
lastChange = "2019-09-19 19:11:30 +0000";
layers = (
{
layerId = "2F22A4FE-F550-4776-9C81-47C8675FAB27";
paths = (
{
closed = 1;
nodes = (
"202 561 OFFCURVE",
"214 573 OFFCURVE",
"222 582 CURVE SMOOTH",
"322 695 LINE",
"326 698 OFFCURVE",
"330 698 OFFCURVE",
"334 695 CURVE",
"428 582 LINE SMOOTH",
"434 574 OFFCURVE",
"448 557 OFFCURVE",
"466 572 CURVE SMOOTH",
"481 585 OFFCURVE",
"474 604 OFFCURVE",
"468 612 CURVE SMOOTH",
"391 707 LINE SMOOTH",
"384 715 OFFCURVE",
"356 747 OFFCURVE",
"330 747 CURVE SMOOTH",
"305 747 OFFCURVE",
"276 715 OFFCURVE",
"269 707 CURVE SMOOTH",
"185 611 LINE SMOOTH",
"178 603 OFFCURVE",
"171 584 OFFCURVE",
"187 572 CURVE SMOOTH"
);
}
);
width = 600;
}
);
unicode = 02C6;
},
{
glyphname = grave;
lastChange = "2019-09-19 19:59:45 +0000";
layers = (
{
layerId = "2F22A4FE-F550-4776-9C81-47C8675FAB27";
paths = (
{
closed = 1;
nodes = (
"441 700 LINE SMOOTH",
"450 717 OFFCURVE",
"458 746 OFFCURVE",
"427 746 CURVE SMOOTH",
"413 746 LINE SMOOTH",
"382 746 OFFCURVE",
"355 728 OFFCURVE",
"342 700 CURVE SMOOTH",
"248 500 LINE SMOOTH",
"240 483 OFFCURVE",
"262 466 OFFCURVE",
"288 466 CURVE SMOOTH",
"297 466 LINE SMOOTH",
"323 466 OFFCURVE",
"328 483 OFFCURVE",
"337 500 CURVE SMOOTH"
);
}
);
width = 600;
}
);
unicode = 0060;
},
